<svg width="49" height="48" viewBox="0 0 49 48" fill="none" xmlns="http://www.w3.org/2000/svg">
<g clip-path="url(#clip0_327_9235)">
<path d="M0.285156 0C16.1252 0 31.9652 0 48.2852 0C48.2852 15.84 48.2852 31.68 48.2852 48C32.4452 48 16.6052 48 0.285156 48C0.285156 32.16 0.285156 16.32 0.285156 0Z" fill="#FDFDFC"/>
<path d="M29.3835 25.7538C29.4808 25.7534 29.4808 25.7534 29.58 25.7529C29.6521 25.7529 29.7242 25.7529 29.7985 25.753C29.9124 25.7526 29.9124 25.7526 30.0286 25.7522C30.2851 25.7515 30.5417 25.7513 30.7983 25.751C30.9814 25.7506 31.1645 25.7502 31.3476 25.7498C31.8987 25.7485 32.4498 25.7479 33.0009 25.7473C33.2602 25.747 33.5196 25.7467 33.779 25.7463C34.6409 25.7452 35.5028 25.7443 36.3648 25.7438C36.5886 25.7437 36.8124 25.7436 37.0362 25.7435C37.0919 25.7434 37.1475 25.7434 37.2048 25.7434C38.106 25.7428 39.0072 25.7412 39.9084 25.7391C40.8331 25.737 41.7578 25.7359 42.6826 25.7357C43.202 25.7355 43.7214 25.735 44.2408 25.7333C44.6831 25.7319 45.1255 25.7314 45.5679 25.732C45.7936 25.7323 46.0193 25.7321 46.2451 25.731C46.4898 25.7298 46.7345 25.7303 46.9792 25.7311C47.0506 25.7304 47.1219 25.7297 47.1954 25.729C47.5908 25.7323 47.8422 25.7585 48.1478 26.0187C48.292 26.2294 48.302 26.3984 48.3018 26.6459C48.3021 26.7221 48.3023 26.7983 48.3026 26.8768C48.3022 26.9606 48.3018 27.0443 48.3014 27.1307C48.3015 27.2205 48.3016 27.3103 48.3018 27.4002C48.3021 27.6473 48.3015 27.8944 48.3008 28.1415C48.3002 28.4079 48.3004 28.6743 48.3005 28.9407C48.3006 29.4023 48.3002 29.8639 48.2994 30.3256C48.2983 30.993 48.2979 31.6604 48.2978 32.3279C48.2975 33.4107 48.2966 34.4935 48.2953 35.5763C48.294 36.6283 48.293 37.6803 48.2924 38.7322C48.2924 38.797 48.2924 38.8619 48.2923 38.9287C48.2922 39.2539 48.292 39.5791 48.2918 39.9043C48.2904 42.6029 48.288 45.3015 48.2849 48C45.8448 48.0059 43.4047 48.0104 40.9645 48.0131C40.6766 48.0135 40.3886 48.0138 40.1006 48.0141C40.0433 48.0142 39.986 48.0143 39.9269 48.0143C38.9982 48.0154 38.0694 48.0175 37.1407 48.0198C36.188 48.0222 35.2353 48.0236 34.2826 48.0242C33.6946 48.0245 33.1065 48.0256 32.5185 48.0277C32.1154 48.0291 31.7124 48.0295 31.3094 48.0291C31.0767 48.029 30.8441 48.0292 30.6114 48.0306C30.3593 48.0319 30.1072 48.0316 29.855 48.0309C29.7813 48.0316 29.7076 48.0324 29.6317 48.0331C29.1367 48.0294 29.1367 48.0294 28.8696 47.878C28.668 47.6657 28.6648 47.5443 28.6641 47.2654C28.6637 47.1905 28.6634 47.1157 28.663 47.0386C28.663 46.9556 28.663 46.8727 28.6629 46.7872C28.6627 46.6988 28.6623 46.6104 28.662 46.5219C28.6612 46.2781 28.6608 46.0342 28.6605 45.7903C28.6601 45.5276 28.6593 45.265 28.6586 45.0023C28.6569 44.3675 28.6559 43.7327 28.655 43.098C28.6547 42.9188 28.6545 42.7396 28.6542 42.5604C28.6525 41.4483 28.6509 40.3362 28.6501 39.2241C28.6499 38.9664 28.6497 38.7088 28.6495 38.4511C28.6494 38.387 28.6494 38.323 28.6493 38.257C28.6485 37.2189 28.6462 36.1808 28.6433 35.1428C28.6404 34.0777 28.6388 33.0127 28.6384 31.9476C28.6382 31.3493 28.6374 30.751 28.6351 30.1528C28.6332 29.6434 28.6325 29.134 28.6332 28.6246C28.6336 28.3645 28.6334 28.1045 28.6317 27.8445C28.6302 27.6066 28.6302 27.3687 28.6315 27.1307C28.6318 27.0037 28.6304 26.8766 28.6289 26.7496C28.6348 26.1352 28.6348 26.1352 28.8432 25.9374C28.9004 25.9008 28.9575 25.8642 29.0163 25.8265C29.1246 25.7253 29.2332 25.7541 29.3835 25.7538Z" fill="#FDFDFD"/>
<path d="M0.282289 0.000101395C2.94081 -0.00722955 5.59932 -0.0128773 8.25785 -0.0162613C8.57157 -0.0166621 8.88528 -0.0170768 9.199 -0.0175002C9.26146 -0.0175842 9.32391 -0.0176683 9.38826 -0.0177549C10.4001 -0.01915 11.412 -0.0216768 12.4239 -0.0246205C13.4618 -0.0276148 14.4997 -0.0293963 15.5377 -0.0300471C16.1784 -0.0304872 16.8191 -0.0318783 17.4597 -0.034478C17.8988 -0.0361691 18.3379 -0.0366843 18.777 -0.0362675C19.0305 -0.0360619 19.284 -0.0363816 19.5375 -0.0380953C19.8121 -0.0399385 20.0867 -0.0393089 20.3614 -0.0384314C20.4819 -0.0398315 20.4819 -0.0398315 20.6049 -0.0412598C21.2046 -0.036057 21.2046 -0.036057 21.4159 0.158718C21.4567 0.212115 21.4974 0.265513 21.5394 0.320529C21.5621 0.341677 21.5847 0.362825 21.608 0.384614C21.6148 0.488872 21.6169 0.593409 21.617 0.697863C21.6173 0.766103 21.6175 0.834343 21.6178 0.904651C21.6178 0.980548 21.6177 1.05644 21.6176 1.13464C21.6179 1.2545 21.6179 1.2545 21.6182 1.37679C21.6188 1.59961 21.6189 1.82243 21.619 2.04526C21.6191 2.28518 21.6196 2.5251 21.6201 2.76503C21.621 3.29016 21.6214 3.81529 21.6217 4.34042C21.6219 4.66813 21.6222 4.99583 21.6225 5.32354C21.6234 6.2303 21.6241 7.13705 21.6243 8.04381C21.6243 8.10189 21.6243 8.15997 21.6243 8.21981C21.6244 8.27803 21.6244 8.33626 21.6244 8.39624C21.6244 8.51423 21.6244 8.63222 21.6245 8.7502C21.6245 8.80873 21.6245 8.86726 21.6245 8.92756C21.6248 9.87592 21.626 10.8243 21.6276 11.7726C21.6292 12.7456 21.6301 13.7185 21.6301 14.6914C21.6302 15.238 21.6306 15.7846 21.6318 16.3311C21.6329 16.7966 21.6333 17.262 21.6327 17.7274C21.6324 17.965 21.6325 18.2025 21.6334 18.4401C21.6345 18.6975 21.6339 18.9548 21.6332 19.2122C21.634 19.3252 21.634 19.3252 21.6349 19.4404C21.6344 19.5093 21.634 19.5783 21.6335 19.6493C21.6335 19.7087 21.6336 19.7681 21.6336 19.8293C21.602 20.0335 21.535 20.1509 21.4023 20.3152C21.1964 20.4487 21.0244 20.4595 20.7773 20.46C20.7061 20.4605 20.6349 20.4609 20.5615 20.4614C20.4833 20.4612 20.4052 20.4611 20.3246 20.4609C20.2415 20.4613 20.1584 20.4616 20.0728 20.4619C19.842 20.4627 19.6112 20.463 19.3804 20.4629C19.1316 20.463 18.8827 20.4639 18.6338 20.4646C18.0897 20.4661 17.5455 20.4666 17.0013 20.4669C16.6616 20.4671 16.3219 20.4675 15.9821 20.468C15.0417 20.4692 14.1012 20.4703 13.1607 20.4705C13.0704 20.4705 13.0704 20.4705 12.9783 20.4705C12.8563 20.4705 12.7343 20.4706 12.6123 20.4706C12.5517 20.4706 12.4911 20.4706 12.4287 20.4706C12.3681 20.4706 12.3075 20.4707 12.245 20.4707C11.262 20.4709 10.279 20.4726 9.29601 20.475C8.28697 20.4775 7.27794 20.4787 6.26889 20.4787C5.70227 20.4788 5.13567 20.4793 4.56905 20.4812C4.08665 20.4827 3.60427 20.4832 3.12187 20.4822C2.87572 20.4818 2.6296 20.4818 2.38345 20.4833C2.11664 20.4848 1.84989 20.4839 1.58308 20.4828C1.50522 20.4836 1.42737 20.4844 1.34715 20.4853C0.763098 20.4795 0.763098 20.4795 0.509561 20.2927C0.290337 20.0582 0.273722 19.8963 0.273851 19.5958C0.273715 19.5259 0.273578 19.4561 0.273438 19.3842C0.273637 19.3072 0.273837 19.2302 0.274043 19.1509C0.273984 19.0694 0.273926 18.9878 0.273865 18.9038C0.273712 18.677 0.273987 18.4502 0.27433 18.2234C0.274625 17.979 0.274526 17.7345 0.274474 17.4901C0.274438 17.0665 0.274653 16.6429 0.275039 16.2193C0.275595 15.6068 0.275775 14.9943 0.275861 14.3819C0.276011 13.3882 0.276468 12.3946 0.277116 11.4009C0.277745 10.4355 0.27823 9.47017 0.278522 8.5048C0.27854 8.44532 0.278558 8.38584 0.278577 8.32455C0.278666 8.02615 0.278753 7.72776 0.278838 7.42936C0.279549 4.95294 0.280757 2.47652 0.282289 0.000101395Z" fill="#FCFDFC"/>
<path d="M21.1998 -0.000424756C21.397 0.155784 21.397 0.155784 21.5427 0.320002C21.5653 0.341151 21.5879 0.362299 21.6113 0.384088C21.6181 0.488346 21.6201 0.592883 21.6203 0.697337C21.6205 0.765577 21.6208 0.833817 21.6211 0.904125C21.621 0.980022 21.6209 1.05592 21.6209 1.13412C21.6212 1.25398 21.6212 1.25398 21.6215 1.37626C21.6221 1.59908 21.6222 1.82191 21.6222 2.04473C21.6224 2.28465 21.6229 2.52458 21.6233 2.7645C21.6243 3.28963 21.6247 3.81476 21.625 4.33989C21.6252 4.6676 21.6255 4.99531 21.6258 5.32302C21.6266 6.22977 21.6273 7.13653 21.6275 8.04329C21.6276 8.10137 21.6276 8.15945 21.6276 8.21929C21.6276 8.27751 21.6276 8.33573 21.6276 8.39572C21.6277 8.51371 21.6277 8.63169 21.6277 8.74968C21.6277 8.80821 21.6278 8.86673 21.6278 8.92703C21.628 9.8754 21.6292 10.8238 21.6308 11.7721C21.6325 12.7451 21.6333 13.718 21.6334 14.6909C21.6335 15.2375 21.6339 15.784 21.6351 16.3306C21.6362 16.796 21.6365 17.2615 21.6359 17.7269C21.6357 17.9644 21.6357 18.202 21.6367 18.4396C21.6377 18.6969 21.6372 18.9543 21.6365 19.2117C21.6373 19.3246 21.6373 19.3246 21.6381 19.4399C21.6377 19.5088 21.6372 19.5777 21.6368 19.6487C21.6368 19.7081 21.6368 19.7676 21.6369 19.8288C21.6053 20.033 21.5382 20.1504 21.4055 20.3147C21.1997 20.4482 21.0276 20.459 20.7806 20.4595C20.7094 20.46 20.6381 20.4604 20.5647 20.4609C20.4866 20.4607 20.4084 20.4606 20.3279 20.4604C20.2448 20.4607 20.1617 20.4611 20.076 20.4614C19.8452 20.4622 19.6145 20.4624 19.3837 20.4624C19.1348 20.4625 18.8859 20.4633 18.6371 20.4641C18.0929 20.4655 17.5487 20.4661 17.0046 20.4664C16.6648 20.4666 16.3251 20.467 15.9854 20.4675C15.0449 20.4687 14.1044 20.4698 13.164 20.47C13.0737 20.47 13.0737 20.47 12.9816 20.47C12.8596 20.47 12.7375 20.47 12.6155 20.4701C12.555 20.4701 12.4944 20.4701 12.432 20.4701C12.3713 20.4701 12.3107 20.4701 12.2482 20.4701C11.2652 20.4704 10.2823 20.4721 9.29927 20.4745C8.29023 20.4769 7.28119 20.4782 6.27215 20.4782C5.70553 20.4782 5.13892 20.4788 4.57231 20.4806C4.08991 20.4822 3.60752 20.4827 3.12512 20.4817C2.87897 20.4812 2.63285 20.4813 2.3867 20.4828C2.1199 20.4843 1.85314 20.4834 1.58633 20.4822C1.50848 20.4831 1.43062 20.4839 1.35041 20.4848C0.766352 20.4789 0.766352 20.4789 0.512815 20.2922C0.275335 20.0381 0.261747 19.8238 0.266256 19.4998C0.296479 19.2703 0.398562 19.1399 0.559828 18.9689C0.818672 18.7937 0.994109 18.7533 1.31167 18.757C1.39246 18.7574 1.47326 18.7578 1.55651 18.7582C1.64322 18.7594 1.72994 18.7606 1.81929 18.7618C1.95635 18.7619 2.09341 18.762 2.23047 18.762C2.5676 18.762 2.90468 18.7639 3.24178 18.768C3.4312 18.7703 3.62051 18.7712 3.80994 18.7706C3.988 18.7701 4.16608 18.7716 4.34409 18.7754C4.78668 18.7804 4.78668 18.7804 5.16945 18.6013C5.29506 18.4687 5.29506 18.4687 5.39135 18.3288C5.52629 18.1641 5.63918 18.0983 5.83983 18.0076C6.02264 17.9895 6.18914 17.9817 6.37168 17.9833C6.42476 17.983 6.47783 17.9827 6.5325 17.9824C6.71007 17.9817 6.8876 17.9823 7.06517 17.9829C7.19257 17.9827 7.31997 17.9823 7.44737 17.9819C7.72156 17.9811 7.99574 17.981 8.26993 17.9813C8.70323 17.9817 9.13652 17.9807 9.56983 17.9794C10.5676 17.9768 11.5654 17.9761 12.5632 17.9754C13.4781 17.9747 14.3929 17.9736 15.3077 17.971C15.7388 17.9698 16.1698 17.9696 16.6008 17.97C16.8685 17.9701 17.1362 17.9695 17.4039 17.9685C17.5283 17.9683 17.6527 17.9684 17.7771 17.9688C17.9466 17.9693 18.116 17.9687 18.2854 17.9678C18.3598 17.9684 18.3598 17.9684 18.4357 17.9691C18.7009 17.9665 18.7009 17.9665 18.9305 17.8539C19.1005 17.6213 19.0832 17.415 19.0817 17.1424C19.0817 17.0923 19.0817 17.0421 19.0817 16.9904C19.0817 16.8214 19.0811 16.6523 19.0806 16.4833C19.0804 16.3625 19.0804 16.2416 19.0803 16.1208C19.0801 15.86 19.0798 15.5993 19.0794 15.3385C19.0788 14.9259 19.0792 14.5133 19.0798 14.1007C19.08 13.9963 19.08 13.9963 19.0801 13.8898C19.0803 13.7474 19.0805 13.6051 19.0807 13.4627C19.0822 12.5019 19.0831 11.5411 19.0809 10.5803C19.0795 9.93258 19.0797 9.2849 19.0819 8.6372C19.0829 8.29446 19.0832 7.95176 19.0813 7.60902C19.0796 7.28624 19.0801 6.96353 19.0823 6.64075C19.0828 6.52259 19.0824 6.40442 19.0811 6.28627C19.0702 5.21011 19.0702 5.21011 19.4909 4.7342C20.0433 4.22921 20.0433 4.22921 20.3084 4.22921C20.3078 4.18175 20.3072 4.13429 20.3066 4.08539C20.301 3.63753 20.2969 3.18967 20.2942 2.74179C20.2928 2.51154 20.2908 2.28131 20.2877 2.05108C20.2847 1.82877 20.2831 1.60648 20.2824 1.38416C20.2816 1.25831 20.2795 1.13248 20.2773 1.00664C20.2773 0.929683 20.2773 0.852725 20.2773 0.773435C20.2766 0.705838 20.276 0.638242 20.2754 0.568597C20.3167 0.337404 20.4107 0.230981 20.5827 0.0636607C20.7979 -0.0369122 20.9625 -0.0229835 21.1998 -0.000424756Z" fill="#50760F"/>
<path d="M29.3835 25.7538C29.4808 25.7534 29.4808 25.7534 29.58 25.7529C29.6521 25.7529 29.7242 25.7529 29.7985 25.753C29.9124 25.7526 29.9124 25.7526 30.0286 25.7522C30.2851 25.7515 30.5417 25.7513 30.7983 25.751C30.9814 25.7506 31.1645 25.7502 31.3476 25.7498C31.8987 25.7485 32.4498 25.7479 33.0009 25.7473C33.2602 25.747 33.5196 25.7467 33.779 25.7463C34.6409 25.7452 35.5028 25.7443 36.3648 25.7438C36.5886 25.7437 36.8124 25.7436 37.0362 25.7435C37.0919 25.7434 37.1475 25.7434 37.2048 25.7434C38.106 25.7428 39.0072 25.7412 39.9084 25.7391C40.8331 25.737 41.7578 25.7359 42.6826 25.7357C43.202 25.7355 43.7214 25.735 44.2408 25.7333C44.6831 25.7319 45.1255 25.7314 45.5679 25.732C45.7936 25.7323 46.0193 25.7321 46.2451 25.731C46.4898 25.7298 46.7345 25.7303 46.9792 25.7311C47.0506 25.7304 47.1219 25.7297 47.1954 25.729C47.6028 25.7324 47.8372 25.7651 48.1478 26.0187C48.3365 26.2755 48.3218 26.5513 48.2849 26.8518C48.164 27.1195 47.9915 27.2662 47.7363 27.4286C47.5337 27.4594 47.5337 27.4594 47.3071 27.4577C47.2221 27.4577 47.137 27.4577 47.0493 27.4577C46.9571 27.4563 46.865 27.455 46.7729 27.4536C46.678 27.4532 46.5832 27.4528 46.4884 27.4525C46.2396 27.4516 45.9908 27.4491 45.742 27.4462C45.4878 27.4436 45.2336 27.4424 44.9794 27.4411C44.4812 27.4384 43.9831 27.434 43.4849 27.4286C43.4654 27.4688 43.4459 27.5089 43.4258 27.5502C43.3226 27.7283 43.2046 27.7852 43.0178 27.8852C42.9593 27.9171 42.9009 27.949 42.8407 27.9819C42.5032 28.1474 42.253 28.2137 41.8685 28.2138C41.802 28.214 41.802 28.214 41.7341 28.2143C41.5861 28.2148 41.4381 28.2144 41.2901 28.214C41.1837 28.2142 41.0774 28.2144 40.971 28.2147C40.7423 28.2152 40.5136 28.2154 40.2849 28.2152C39.9233 28.215 39.5617 28.216 39.2001 28.2171C38.1719 28.2201 37.1438 28.2216 36.1157 28.222C35.5476 28.2223 34.9796 28.2234 34.4116 28.2256C34.052 28.2269 33.6925 28.227 33.3329 28.2263C33.1094 28.2262 32.8859 28.2271 32.6624 28.2283C32.5587 28.2286 32.455 28.2285 32.3513 28.2279C32.2098 28.2272 32.0684 28.2281 31.9269 28.2293C31.8081 28.2294 31.8081 28.2294 31.6869 28.2295C31.4816 28.2494 31.4816 28.2494 31.3222 28.3611C31.17 28.5752 31.1737 28.7631 31.1783 29.0115C31.178 29.0866 31.178 29.0866 31.1777 29.1631C31.1775 29.3308 31.1791 29.4985 31.1808 29.6663C31.181 29.7865 31.1811 29.9067 31.181 30.027C31.1811 30.2861 31.182 30.5453 31.1836 30.8044C31.186 31.215 31.1861 31.6255 31.1857 32.0361C31.1852 33.1302 31.1875 34.2244 31.1917 35.3185C31.1944 36.0367 31.1957 36.7548 31.1945 37.473C31.1939 37.8802 31.1955 38.2874 31.1987 38.6947C31.2002 38.9496 31.1997 39.2044 31.1986 39.4592C31.1985 39.5764 31.1993 39.6936 31.2009 39.8108C31.2147 40.8598 30.906 41.6886 30.2506 42.5528C30.1976 42.59 30.1976 42.59 30.1436 42.628C29.9897 42.8105 30.0189 42.9738 30.0185 43.203C30.0182 43.2494 30.0178 43.2958 30.0174 43.3436C30.0167 43.4443 30.0165 43.545 30.0167 43.6457C30.0171 43.8052 30.0161 43.9646 30.0148 44.1241C30.0123 44.4628 30.0113 44.8015 30.0106 45.1402C30.0098 45.5323 30.0083 45.9244 30.0051 46.3164C30.0042 46.4734 30.0045 46.6303 30.0048 46.7873C30.0042 46.8838 30.0035 46.9804 30.0027 47.0769C30.0026 47.161 30.0024 47.2451 30.0023 47.3317C29.9747 47.5652 29.9202 47.6855 29.7706 47.8719C29.5506 48.0208 29.3513 48.0305 29.0849 48C28.8998 47.8847 28.7735 47.8024 28.6735 47.6155C28.6667 47.4989 28.6644 47.3821 28.6641 47.2654C28.6637 47.1905 28.6634 47.1157 28.663 47.0386C28.663 46.9556 28.663 46.8727 28.6629 46.7872C28.6627 46.6988 28.6623 46.6104 28.662 46.5219C28.6612 46.2781 28.6608 46.0342 28.6605 45.7903C28.6601 45.5276 28.6593 45.265 28.6586 45.0023C28.6569 44.3675 28.6559 43.7327 28.655 43.098C28.6547 42.9188 28.6545 42.7396 28.6542 42.5604C28.6525 41.4483 28.6509 40.3362 28.6501 39.2241C28.6499 38.9664 28.6497 38.7088 28.6495 38.4511C28.6494 38.387 28.6494 38.323 28.6493 38.257C28.6485 37.2189 28.6462 36.1808 28.6433 35.1427C28.6404 34.0777 28.6388 33.0127 28.6384 31.9476C28.6382 31.3493 28.6374 30.751 28.6351 30.1528C28.6332 29.6434 28.6325 29.134 28.6332 28.6246C28.6336 28.3645 28.6334 28.1045 28.6317 27.8445C28.6302 27.6066 28.6302 27.3687 28.6315 27.1307C28.6318 27.0037 28.6304 26.8766 28.6289 26.7496C28.6348 26.1352 28.6348 26.1352 28.8432 25.9374C28.9004 25.9008 28.9575 25.8642 29.0163 25.8265C29.1246 25.7253 29.2332 25.7541 29.3835 25.7538Z" fill="#507610"/>
<path d="M17.9754 2.88403C18.1596 3.0101 18.2942 3.1115 18.3498 3.32558C18.3626 3.47499 18.364 3.62132 18.3618 3.77122C18.3624 3.82832 18.3629 3.88541 18.3635 3.94424C18.3648 4.13559 18.3637 4.32686 18.3627 4.51821C18.3631 4.65538 18.3637 4.79255 18.3645 4.92972C18.3661 5.30231 18.3654 5.67488 18.3644 6.04748C18.3635 6.43717 18.3643 6.82687 18.3648 7.21656C18.3655 7.87102 18.3646 8.52547 18.363 9.17993C18.3611 9.93686 18.3617 10.6938 18.3636 11.4507C18.3652 12.1003 18.3654 12.7498 18.3645 13.3994C18.364 13.7875 18.3639 14.1756 18.365 14.5637C18.366 14.9286 18.3653 15.2934 18.3634 15.6582C18.3629 15.7922 18.363 15.9262 18.3638 16.0602C18.3647 16.243 18.3636 16.4256 18.3618 16.6083C18.363 16.6881 18.363 16.6881 18.3642 16.7696C18.3594 17.0307 18.3385 17.1478 18.1754 17.3682C17.924 17.5282 17.7787 17.5355 17.4758 17.5353C17.4261 17.5358 17.3765 17.5362 17.3254 17.5366C17.1595 17.5376 16.9937 17.5363 16.8278 17.5349C16.7087 17.5352 16.5897 17.5355 16.4706 17.536C16.1474 17.5369 15.8243 17.5358 15.5011 17.5343C15.163 17.533 14.8248 17.5334 14.4866 17.5336C13.9187 17.5336 13.3508 17.5323 12.7829 17.5303C12.1263 17.5279 11.4697 17.5273 10.8131 17.5278C10.1815 17.5282 9.54986 17.5275 8.91825 17.5262C8.64944 17.5257 8.38064 17.5255 8.11183 17.5256C7.79528 17.5257 7.47876 17.5248 7.16222 17.5231C7.04604 17.5227 6.92986 17.5225 6.81368 17.5227C6.6551 17.523 6.49658 17.522 6.338 17.5208C6.20489 17.5204 6.20489 17.5204 6.06909 17.5201C5.82196 17.4938 5.69285 17.4417 5.49545 17.3033C5.30967 17.0455 5.31209 16.7704 5.35831 16.4701C5.49579 16.2265 5.59329 16.1101 5.83831 15.9575C6.05547 15.9452 6.05547 15.9452 6.32152 15.949C6.41866 15.9489 6.51581 15.9487 6.61295 15.9485C6.76543 15.9486 6.91773 15.9494 7.07018 15.9524C7.66667 15.9793 7.66667 15.9793 8.20201 15.78C8.31963 15.6521 8.41401 15.5215 8.51259 15.3807C8.72385 15.2491 8.76598 15.2365 9.00413 15.2368C9.06229 15.2366 9.12045 15.2363 9.18037 15.2361C9.27575 15.2366 9.27575 15.2366 9.37307 15.2372C9.47378 15.237 9.47378 15.237 9.57652 15.2368C9.72244 15.2366 9.86837 15.2366 10.0143 15.2369C10.2451 15.2373 10.4759 15.2367 10.7067 15.2358C11.363 15.2334 12.0193 15.2322 12.6756 15.233C13.0769 15.2333 13.4782 15.2322 13.8795 15.23C14.0325 15.2295 14.1856 15.2296 14.3387 15.2303C14.5526 15.2312 14.7665 15.2301 14.9804 15.2287C15.0438 15.2294 15.1073 15.2302 15.1727 15.231C15.4464 15.2272 15.596 15.2212 15.8207 15.0679C15.9637 14.775 15.9542 14.5121 15.9492 14.1937C15.9493 14.1258 15.9493 14.0579 15.9494 13.988C15.9493 13.8407 15.9486 13.6935 15.9474 13.5462C15.9456 13.3129 15.9456 13.0796 15.9461 12.8463C15.9472 12.183 15.9448 11.5197 15.9416 10.8564C15.9398 10.4504 15.9399 10.0445 15.9412 9.63859C15.9413 9.48417 15.9406 9.32974 15.9391 9.17532C15.9369 8.95888 15.9373 8.74256 15.9382 8.52612C15.937 8.46278 15.9357 8.39944 15.9344 8.33418C15.9411 7.79609 16.1662 7.47262 16.5537 7.08739C16.5986 7.05244 16.6435 7.0175 16.6897 6.9815C16.7353 6.94507 16.781 6.90864 16.8279 6.8711C16.9469 6.79325 16.9469 6.79325 17.084 6.79325C17.0834 6.7498 17.0828 6.70635 17.0822 6.66159C17.0761 6.20938 17.072 5.75717 17.069 5.30493C17.0676 5.13616 17.0657 4.9674 17.0633 4.79863C17.06 4.55604 17.0584 4.31348 17.0572 4.07087C17.0558 3.99542 17.0544 3.91998 17.0529 3.84225C17.0528 3.31803 17.0528 3.31803 17.2143 3.06219C17.4676 2.86153 17.6447 2.8526 17.9754 2.88403Z" fill="#50760F"/>
<path d="M32.7783 28.6938C32.8267 28.6935 32.875 28.6933 32.9249 28.693C33.0874 28.6924 33.2499 28.6926 33.4124 28.6929C33.5287 28.6926 33.6451 28.6923 33.7614 28.6919C34.0778 28.691 34.3941 28.691 34.7105 28.6912C34.9745 28.6912 35.2384 28.6909 35.5024 28.6906C36.1251 28.6899 36.7478 28.6899 37.3705 28.6903C38.0132 28.6907 38.6558 28.6899 39.2985 28.6885C39.85 28.6874 40.4015 28.687 40.953 28.6872C41.2824 28.6873 41.6119 28.6871 41.9414 28.6863C42.2513 28.6854 42.5612 28.6856 42.8711 28.6864C42.9849 28.6866 43.0986 28.6864 43.2123 28.6859C43.3676 28.6852 43.5229 28.6857 43.6781 28.6865C43.8085 28.6865 43.8085 28.6865 43.9415 28.6865C44.2439 28.7185 44.4194 28.8199 44.6355 29.0149C44.7532 29.2233 44.7431 29.3754 44.7169 29.6077C44.6342 29.7816 44.5688 29.8896 44.4028 30.0006C44.1567 30.0832 43.9148 30.0676 43.657 30.0625C43.5413 30.0623 43.4257 30.0622 43.31 30.0622C43.1285 30.0617 42.9471 30.0603 42.7656 30.0565C42.0707 30.0177 42.0707 30.0177 41.45 30.246C41.3305 30.3916 41.2428 30.5355 41.1512 30.6971C40.8502 30.9817 40.6339 31.0886 40.2049 31.0916C40.1215 31.0917 40.1215 31.0917 40.0364 31.0918C39.9779 31.0921 39.9193 31.0924 39.859 31.0928C39.7316 31.0934 39.6043 31.094 39.4769 31.0944C39.2755 31.0952 39.0741 31.0964 38.8727 31.0978C38.2999 31.1018 37.7272 31.1052 37.1545 31.1074C36.8044 31.1087 36.4543 31.111 36.1043 31.1138C35.9707 31.1147 35.837 31.1153 35.7034 31.1155C35.5168 31.1158 35.3301 31.1173 35.1435 31.1191C35.088 31.1189 35.0325 31.1187 34.9754 31.1185C34.6952 31.1165 34.6952 31.1165 34.4512 31.2283C34.2957 31.4209 34.3363 31.6597 34.3395 31.8917C34.3395 31.9483 34.3394 32.0049 34.3394 32.0632C34.3394 32.1864 34.3399 32.3095 34.3408 32.4327C34.342 32.6284 34.3418 32.8241 34.3412 33.0199C34.3397 33.5765 34.3405 34.133 34.3431 34.6896C34.3446 35.0302 34.3441 35.3707 34.3424 35.7112C34.3421 35.8403 34.3426 35.9694 34.344 36.0984C34.3555 37.2431 34.1307 38.0651 33.3341 38.9642C33.3114 38.9853 33.2888 39.0065 33.2655 39.0283C33.2581 39.1327 33.2555 39.2375 33.2547 39.3422C33.2536 39.4427 33.2536 39.4427 33.2525 39.5451C33.252 39.6181 33.2515 39.6911 33.251 39.7662C33.2491 39.9194 33.2471 40.0725 33.2451 40.2256C33.2423 40.4681 33.2398 40.7105 33.238 40.953C33.2361 41.1863 33.2329 41.4195 33.2296 41.6528C33.2294 41.7252 33.2292 41.7976 33.2289 41.8723C33.2278 41.94 33.2266 42.0078 33.2255 42.0776C33.2249 42.1371 33.2244 42.1965 33.2238 42.2577C33.1915 42.4586 33.116 42.5804 32.9912 42.7452C32.7714 42.894 32.5714 42.9089 32.3055 42.8734C32.1291 42.7341 31.9976 42.6183 31.8941 42.4248C31.887 42.252 31.8842 42.0808 31.8844 41.9079C31.8842 41.8539 31.884 41.7998 31.8838 41.7441C31.8832 41.5619 31.8831 41.3797 31.883 41.1976C31.8827 41.0674 31.8824 40.9372 31.882 40.807C31.8811 40.4525 31.8806 40.0981 31.8803 39.7436C31.8801 39.5223 31.8799 39.301 31.8795 39.0797C31.8786 38.3878 31.8779 37.6959 31.8777 37.004C31.8774 36.2044 31.8762 35.4049 31.8742 34.6053C31.8727 33.9878 31.872 33.3704 31.8719 32.7529C31.8718 32.3839 31.8714 32.0149 31.8702 31.6458C31.8691 31.2987 31.8689 30.9516 31.8695 30.6045C31.8696 30.477 31.8693 30.3495 31.8686 30.222C31.8677 30.0481 31.8681 29.8743 31.8689 29.7004C31.8683 29.6498 31.8678 29.5992 31.8672 29.5471C31.87 29.2568 31.9049 29.0681 32.0998 28.8387C32.3526 28.6811 32.4765 28.6942 32.7783 28.6938Z" fill="#517711"/>
<path d="M23.119 18.3193C23.1767 18.3189 23.2343 18.3186 23.2937 18.3182C23.3893 18.3181 23.3893 18.3181 23.4868 18.318C23.5542 18.3176 23.6216 18.3173 23.691 18.317C23.9183 18.316 24.1456 18.3154 24.3729 18.3149C24.5353 18.3143 24.6977 18.3136 24.8601 18.313C25.3486 18.3111 25.8371 18.3099 26.3257 18.3088C26.4637 18.3085 26.6017 18.3082 26.7397 18.3078C27.597 18.3059 28.4543 18.3041 29.3115 18.3031C29.5102 18.3028 29.7088 18.3026 29.9074 18.3023C29.9815 18.3022 29.9815 18.3022 30.057 18.3021C30.8561 18.301 31.6551 18.2984 32.4541 18.2951C33.2747 18.2918 34.0953 18.2899 34.9159 18.2895C35.3765 18.2892 35.8371 18.2882 36.2977 18.2856C36.7313 18.2833 37.1649 18.2827 37.5985 18.2836C37.7574 18.2836 37.9164 18.2829 38.0753 18.2816C38.2928 18.2798 38.5102 18.2804 38.7277 18.2816C38.7902 18.2805 38.8526 18.2794 38.917 18.2783C39.404 18.285 39.7371 18.4419 40.1249 18.7128C40.2858 18.8747 40.2858 18.8747 40.411 19.0219C40.941 19.4839 41.728 19.3564 42.4049 19.3416C42.6211 19.3386 42.8372 19.3365 43.0534 19.3358C43.1873 19.3352 43.3211 19.3332 43.455 19.3296C43.8553 19.3257 44.068 19.3665 44.3763 19.61C44.4846 19.7112 44.4592 19.8147 44.4621 19.9544C44.4638 20.0051 44.4656 20.0559 44.4674 20.1081C44.4449 20.2508 44.4449 20.2508 44.371 20.3575C43.944 20.6348 43.4123 20.5896 42.9159 20.5884C42.831 20.5887 42.7461 20.589 42.6586 20.5893C42.4237 20.5899 42.1889 20.59 41.954 20.5899C41.7003 20.5899 41.4467 20.5906 41.1931 20.5912C40.6965 20.5922 40.2 20.5926 39.7035 20.5927C39.2999 20.5927 38.8963 20.593 38.4927 20.5934C37.3482 20.5945 36.2038 20.5951 35.0593 20.595C34.9976 20.595 34.9359 20.595 34.8724 20.595C34.8107 20.595 34.7489 20.595 34.6853 20.595C33.6842 20.5949 32.6831 20.5962 31.682 20.598C30.6538 20.5998 29.6256 20.6007 28.5974 20.6006C28.0203 20.6005 27.4431 20.6009 26.866 20.6023C26.3747 20.6034 25.8835 20.6037 25.3922 20.6028C25.1416 20.6024 24.8911 20.6024 24.6405 20.6035C24.3687 20.6047 24.0971 20.6039 23.8253 20.6029C23.7067 20.6039 23.7067 20.6039 23.5856 20.6049C23.1402 20.6013 22.8629 20.5657 22.5021 20.3149C22.1756 19.9629 22.1757 19.5931 22.1868 19.1371C22.2476 18.793 22.4159 18.6009 22.7078 18.3923C22.8629 18.3199 22.9469 18.3199 23.119 18.3193Z" fill="#FEB203"/>
<path d="M23.459 12.9111C23.5519 12.9102 23.5519 12.9102 23.6466 12.9093C23.8542 12.9077 24.0617 12.9079 24.2693 12.9081C24.4181 12.9073 24.5669 12.9065 24.7157 12.9055C25.1201 12.9032 25.5244 12.9026 25.9288 12.9025C26.1815 12.9023 26.4343 12.9017 26.687 12.9011C27.5691 12.8987 28.4512 12.8976 29.3332 12.8978C30.1549 12.898 30.9764 12.8953 31.798 12.8912C32.5038 12.8879 33.2095 12.8865 33.9153 12.8867C34.3366 12.8867 34.7579 12.886 35.1793 12.8833C35.5759 12.8808 35.9724 12.8808 36.369 12.8827C36.5142 12.8829 36.6594 12.8823 36.8046 12.8808C38.1252 12.8676 38.1252 12.8676 38.6723 13.3165C38.7217 13.3632 38.7711 13.4099 38.8221 13.458C39.1653 13.7762 39.3749 13.957 39.8723 13.9637C39.9342 13.9622 39.9961 13.9608 40.06 13.9594C40.1601 13.9598 40.1601 13.9598 40.2622 13.9602C40.4815 13.9607 40.7006 13.958 40.9199 13.9554C41.0731 13.9554 41.2263 13.9556 41.3794 13.956C41.7819 13.9566 42.1843 13.9548 42.5868 13.9522C43.2309 13.9483 43.875 13.947 44.5191 13.9477C44.7435 13.9474 44.9679 13.9455 45.1923 13.9434C45.3305 13.9432 45.4688 13.943 45.607 13.9428C45.6689 13.9418 45.7309 13.9408 45.7947 13.9397C46.196 13.9414 46.5123 14.0076 46.8449 14.2271C46.9439 14.4122 46.9393 14.5344 46.9135 14.7397C46.7386 14.9385 46.6271 15.0426 46.3649 15.1243C46.2353 15.1304 46.1055 15.1326 45.9758 15.1329C45.8534 15.1333 45.8534 15.1333 45.7286 15.1337C45.5935 15.1337 45.5935 15.1337 45.4557 15.1337C45.3594 15.1339 45.2631 15.1341 45.1668 15.1344C44.9016 15.135 44.6364 15.1353 44.3712 15.1354C44.0854 15.1357 43.7996 15.1363 43.5138 15.1369C42.8234 15.1381 42.1329 15.1388 41.4424 15.1394C41.1174 15.1396 40.7924 15.14 40.4673 15.1403C39.3871 15.1414 38.3069 15.1423 37.2266 15.1428C36.9463 15.1429 36.6659 15.143 36.3855 15.1432C36.3158 15.1432 36.2461 15.1432 36.1743 15.1433C35.0451 15.1438 33.9158 15.1454 32.7865 15.1475C31.6276 15.1496 30.4686 15.1508 29.3096 15.151C28.6587 15.1511 28.0078 15.1517 27.3569 15.1533C26.8027 15.1547 26.2484 15.1552 25.6942 15.1546C25.4114 15.1543 25.1286 15.1544 24.8458 15.1557C24.5868 15.1568 24.3279 15.1567 24.0689 15.1557C23.931 15.1555 23.793 15.1566 23.6551 15.1576C23.1877 15.1545 22.8788 15.136 22.5021 14.8679C22.1884 14.5455 22.2045 14.207 22.2085 13.7895C22.2405 13.4524 22.4011 13.2976 22.645 13.0659C22.9207 12.8997 23.1374 12.9089 23.459 12.9111Z" fill="#FEB203"/>
<path d="M23.5899 15.5378C23.6915 15.5367 23.6915 15.5367 23.7952 15.5357C24.0222 15.5338 24.2491 15.5337 24.476 15.5336C24.6388 15.5326 24.8015 15.5316 24.9643 15.5304C25.4065 15.5276 25.8487 15.5264 26.2909 15.5258C26.5673 15.5254 26.8438 15.5245 27.1202 15.5236C27.8865 15.5211 28.6528 15.519 29.4191 15.5186C29.4681 15.5186 29.5171 15.5186 29.5676 15.5186C29.667 15.5185 29.7663 15.5185 29.8656 15.5184C29.9149 15.5184 29.9642 15.5184 30.015 15.5183C30.0644 15.5183 30.1138 15.5183 30.1646 15.5183C30.9637 15.5178 31.7628 15.5144 32.5619 15.5096C33.3835 15.5047 34.2051 15.5022 35.0267 15.5022C35.4875 15.5021 35.9483 15.501 36.4091 15.4973C36.8429 15.4939 37.2766 15.4937 37.7104 15.4957C37.8692 15.4959 38.0279 15.4951 38.1867 15.493C39.0388 15.4827 39.65 15.4894 40.2967 16.045C40.3533 16.1007 40.4098 16.1564 40.4681 16.2137C40.6856 16.4451 40.6856 16.4451 40.9696 16.5738C41.051 16.5736 41.051 16.5736 41.134 16.5734C41.196 16.574 41.258 16.5747 41.3219 16.5753C41.4212 16.574 41.4212 16.574 41.5224 16.5727C41.5911 16.5732 41.6598 16.5737 41.7306 16.5743C41.9498 16.5758 42.1689 16.5752 42.3881 16.5742C42.6073 16.574 42.8264 16.5742 43.0456 16.5755C43.1818 16.5763 43.3181 16.5762 43.4543 16.5749C43.8858 16.5766 44.1315 16.6254 44.4452 16.9187C44.4922 17.3723 44.4922 17.3723 44.321 17.5876C44.0844 17.7455 43.8961 17.7599 43.6136 17.7604C43.5404 17.7607 43.4672 17.761 43.3917 17.7613C43.311 17.7613 43.2303 17.7612 43.1472 17.7612C43.0616 17.7615 42.9761 17.7617 42.888 17.7619C42.6501 17.7626 42.4123 17.7628 42.1745 17.763C41.9181 17.7632 41.6618 17.7639 41.4054 17.7644C40.7861 17.7657 40.1669 17.7663 39.5476 17.7669C39.256 17.7672 38.9645 17.7675 38.6729 17.7679C37.7039 17.7689 36.7348 17.7699 35.7657 17.7703C35.5143 17.7705 35.2628 17.7706 35.0113 17.7707C34.9175 17.7708 34.9175 17.7708 34.8218 17.7708C33.809 17.7713 32.7961 17.773 31.7832 17.775C30.7436 17.7772 29.7039 17.7783 28.6643 17.7785C28.0804 17.7787 27.4966 17.7792 26.9128 17.7809C26.4156 17.7822 25.9185 17.7828 25.4213 17.7821C25.1677 17.7819 24.9141 17.782 24.6604 17.7832C24.3854 17.7846 24.1104 17.7839 23.8353 17.7831C23.7552 17.7838 23.6751 17.7845 23.5926 17.7852C23.0454 17.7811 22.7356 17.7078 22.3353 17.3433C22.1647 16.9734 22.1788 16.6101 22.2281 16.2137C22.5037 15.6391 22.9731 15.5347 23.5899 15.5378Z" fill="#FEB203"/>
<path d="M14.7736 5.03881C14.8257 5.03567 14.8777 5.03253 14.9314 5.0293C15.1193 5.06783 15.2319 5.13132 15.3645 5.26181C15.5359 5.5455 15.4836 5.90441 15.4801 6.22051C15.4803 6.30654 15.4807 6.39256 15.4812 6.47859C15.4822 6.71177 15.481 6.94491 15.4794 7.17808C15.478 7.42229 15.4784 7.6665 15.4786 7.91071C15.4786 8.32079 15.4772 8.73086 15.475 9.14093C15.4725 9.6148 15.4719 10.0886 15.4724 10.5625C15.4728 11.0187 15.4721 11.4748 15.4707 11.931C15.4702 12.125 15.47 12.3189 15.4701 12.5129C15.4702 12.7414 15.4692 12.9699 15.4674 13.1984C15.4667 13.3221 15.467 13.4458 15.4673 13.5695C15.4661 13.6803 15.4661 13.6803 15.4649 13.7933C15.4645 13.8893 15.4645 13.8893 15.4642 13.9873C15.433 14.1956 15.3648 14.3146 15.2322 14.4834C15.0017 14.627 14.9252 14.6279 14.6556 14.6291C14.5786 14.6298 14.5016 14.6304 14.4223 14.6311C14.3378 14.6311 14.2532 14.6312 14.1661 14.6312C14.0772 14.6317 13.9882 14.6323 13.8965 14.6328C13.6522 14.6342 13.408 14.6348 13.1637 14.6351C13.0111 14.6354 12.8584 14.6358 12.7058 14.6362C12.1731 14.6378 11.6404 14.6386 11.1078 14.6388C10.6115 14.6391 10.1152 14.641 9.61893 14.6437C9.19271 14.6459 8.76649 14.6469 8.34025 14.6469C8.08575 14.647 7.83127 14.6475 7.57678 14.6494C7.29277 14.6514 7.00882 14.6508 6.7248 14.65C6.64069 14.6509 6.55657 14.6519 6.4699 14.6529C5.83466 14.6477 5.83466 14.6477 5.58102 14.457C5.38482 14.2465 5.34136 14.1325 5.32359 13.8586C5.31864 13.8047 5.31369 13.7508 5.30859 13.6954C5.37387 13.4659 5.46793 13.3591 5.66638 13.2128C6.07562 13.0333 6.5905 13.1033 7.0352 13.1185C7.61448 13.1479 7.61448 13.1479 8.14393 12.9658C8.29642 12.8357 8.29642 12.8357 8.41644 12.6966C8.89787 12.2988 9.47576 12.2677 10.0912 12.2722C10.2054 12.2713 10.2054 12.2713 10.322 12.2704C10.563 12.2685 10.804 12.2683 11.045 12.2684C11.2878 12.2682 11.5305 12.2676 11.7732 12.2658C11.9237 12.2648 12.0742 12.2646 12.2247 12.2654C12.2925 12.2649 12.3603 12.2645 12.4301 12.2641C12.5195 12.2641 12.5195 12.2641 12.6107 12.2642C12.7967 12.2353 12.8544 12.1849 12.9693 12.0482C13.055 11.888 13.0469 11.7789 13.0476 11.5997C13.0481 11.533 13.0486 11.4662 13.0491 11.3975C13.0495 11.2888 13.0495 11.2888 13.0499 11.178C13.0515 11.0254 13.0532 10.8728 13.0549 10.7201C13.0573 10.4789 13.0593 10.2378 13.0602 9.99658C13.0613 9.76419 13.064 9.53186 13.0671 9.29949C13.0669 9.22758 13.0668 9.15567 13.0667 9.08159C13.0746 8.60905 13.1352 8.37518 13.4903 8.03355C13.6593 7.90758 13.7912 7.81883 13.9979 7.75443C13.9985 7.68622 13.9992 7.61801 13.9998 7.54773C14.0026 7.29391 14.0071 7.04013 14.0121 6.78634C14.014 6.67664 14.0155 6.56693 14.0165 6.45722C14.0179 6.29921 14.0211 6.1413 14.0247 5.98332C14.0247 5.93451 14.0248 5.8857 14.0249 5.83541C14.0342 5.51769 14.0969 5.34967 14.3407 5.12693C14.4966 5.05411 14.6001 5.04589 14.7736 5.03881Z" fill="#507711"/>
<path d="M35.6233 31.5842C35.703 31.5836 35.7827 31.5831 35.8648 31.5825C35.953 31.5822 36.0413 31.582 36.1322 31.5817C36.2254 31.5812 36.3187 31.5807 36.4119 31.5801C36.719 31.5784 37.0261 31.5774 37.3332 31.5765C37.4388 31.5762 37.5445 31.5758 37.6501 31.5755C38.0896 31.5741 38.5291 31.5729 38.9685 31.5722C39.5986 31.5711 40.2287 31.569 40.8588 31.5654C41.3016 31.5629 41.7444 31.5616 42.1872 31.5613C42.4518 31.5611 42.7163 31.5603 42.9808 31.5582C43.2299 31.5563 43.4789 31.5559 43.728 31.5566C43.8627 31.5567 43.9974 31.5551 44.1321 31.5535C44.7927 31.5578 44.7927 31.5578 45.0475 31.7473C45.2489 31.9697 45.2511 32.0783 45.2307 32.3573C45.1845 32.5516 45.0981 32.6364 44.9245 32.7476C44.6764 32.8249 44.4553 32.8131 44.1979 32.8072C44.0923 32.8065 43.9867 32.806 43.8811 32.8057C43.7155 32.8052 43.5502 32.8037 43.3847 32.7987C42.705 32.7692 42.705 32.7692 42.1083 33.0263C41.9323 33.2073 41.9323 33.2073 41.7934 33.3977C41.5484 33.6773 41.2955 33.8686 40.9059 33.9286C40.7008 33.9389 40.4984 33.9388 40.293 33.9352C40.2185 33.9354 40.144 33.9356 40.0672 33.9358C39.8306 33.9364 39.594 33.935 39.3574 33.9332C39.045 33.9307 38.7326 33.9303 38.4202 33.9312C38.3487 33.9299 38.2772 33.9286 38.2035 33.9274C37.7925 33.9276 37.7925 33.9276 37.4411 34.1155C37.2373 34.3865 37.2363 34.5892 37.2349 34.9132C37.2336 35.0008 37.2323 35.0884 37.2309 35.1759C37.2289 35.3132 37.2274 35.4504 37.2274 35.5876C37.2264 36.1219 37.223 36.5578 36.8331 36.9772C36.8031 37.0137 36.773 37.0502 36.7421 37.0878C36.6013 37.2551 36.4752 37.3711 36.2845 37.4899C36.2542 37.6345 36.2542 37.6345 36.2603 37.8043C36.2601 37.8697 36.2598 37.9352 36.2596 38.0026C36.2602 38.0737 36.2609 38.1447 36.2615 38.2179C36.2607 38.3676 36.2598 38.5173 36.2588 38.667C36.2586 38.9035 36.2588 39.1401 36.2598 39.3766C36.2604 39.6045 36.2589 39.8324 36.2572 40.0603C36.2581 40.1308 36.2591 40.2013 36.26 40.274C36.2543 40.8224 36.2543 40.8224 36.0505 41.0582C35.8063 41.2628 35.6616 41.2831 35.3361 41.3108C35.1445 41.2595 35.0415 41.1673 34.9186 41.0231C34.754 40.7193 34.7973 40.3628 34.8002 40.0302C34.7997 39.9429 34.7991 39.8556 34.7984 39.7683C34.7968 39.5319 34.7974 39.2956 34.7985 39.0592C34.7994 38.8116 34.7986 38.564 34.798 38.3164C34.7974 37.9006 34.7982 37.4849 34.7998 37.0692C34.8017 36.5888 34.8011 36.1084 34.7992 35.6281C34.7977 35.2152 34.7974 34.8024 34.7983 34.3896C34.7989 34.1432 34.799 33.8968 34.7978 33.6504C34.7968 33.4188 34.7975 33.1872 34.7995 32.9556C34.8002 32.8302 34.7991 32.7048 34.7981 32.5795C34.806 31.9669 34.806 31.9669 35.0145 31.7694C35.0715 31.7326 35.1286 31.6959 35.1874 31.6581C35.3054 31.5478 35.4622 31.585 35.6233 31.5842Z" fill="#517712"/>
<path d="M23.8612 10.0893C23.9581 10.0887 24.055 10.0879 24.1519 10.087C24.4144 10.0851 24.677 10.0847 24.9395 10.0848C25.1592 10.0847 25.3788 10.084 25.5984 10.0832C26.117 10.0814 26.6355 10.0811 27.1541 10.0816C27.6878 10.082 28.2214 10.0799 28.7552 10.0765C29.2144 10.0737 29.6735 10.0726 30.1327 10.0729C30.4066 10.0731 30.6804 10.0725 30.9542 10.0703C31.212 10.0682 31.4697 10.0684 31.7275 10.0701C31.8663 10.0705 32.005 10.0688 32.1438 10.0669C32.7399 10.0739 33.1001 10.1953 33.5412 10.5742C33.6509 10.687 33.7587 10.8017 33.8632 10.9189C34.418 11.4008 35.1505 11.2922 35.8641 11.2751C36.0756 11.2724 36.287 11.2707 36.4986 11.27C36.6295 11.2692 36.7604 11.2673 36.8912 11.264C37.2257 11.2595 37.4558 11.2614 37.7241 11.4714C37.8849 11.6968 37.901 11.7827 37.8612 12.0481C37.6699 12.2873 37.5673 12.3612 37.2483 12.409C37.14 12.4109 37.0316 12.411 36.9233 12.4097C36.8634 12.4102 36.8035 12.4108 36.7418 12.4113C36.5412 12.4127 36.3406 12.4119 36.14 12.411C35.9961 12.4116 35.8523 12.4122 35.7085 12.413C35.3177 12.4148 34.927 12.4145 34.5362 12.4137C34.2101 12.4132 33.8839 12.4138 33.5577 12.4143C32.7883 12.4156 32.0188 12.4153 31.2493 12.4138C30.4554 12.4124 29.6616 12.4135 28.8677 12.416C28.1862 12.418 27.5047 12.4185 26.8231 12.4178C26.4161 12.4173 26.009 12.4175 25.602 12.419C25.2191 12.4204 24.8363 12.4198 24.4534 12.4179C24.313 12.4175 24.1725 12.4177 24.0321 12.4187C23.8402 12.4199 23.6485 12.4187 23.4566 12.4169C23.4011 12.4178 23.3456 12.4187 23.2885 12.4197C22.9219 12.4129 22.7299 12.3234 22.4609 12.0915C22.2212 11.8256 22.2049 11.5989 22.2012 11.2551C22.1993 11.1726 22.1973 11.0902 22.1953 11.0052C22.2413 10.6581 22.3889 10.4802 22.6577 10.2449C23.0118 10.0337 23.4572 10.0884 23.8612 10.0893Z" fill="#FEB101"/>
<path d="M23.4021 7.47037C23.4572 7.46972 23.5123 7.46908 23.5691 7.46841C23.751 7.46659 23.9328 7.46621 24.1147 7.466C24.2417 7.46538 24.3687 7.46474 24.4957 7.46406C24.7619 7.46291 25.0282 7.46255 25.2944 7.46267C25.6342 7.46269 25.9739 7.46007 26.3137 7.45675C26.5761 7.45461 26.8386 7.45423 27.101 7.45433C27.2262 7.4541 27.3514 7.45326 27.4765 7.45176C28.18 7.44416 28.7248 7.44032 29.291 7.88281C29.3527 7.92609 29.4144 7.96938 29.478 8.01398C29.5209 8.05 29.5639 8.08602 29.6081 8.12313C29.6752 8.17815 29.6752 8.17815 29.7437 8.23428C29.8396 8.33141 29.8396 8.33141 29.8396 8.45958C29.9016 8.45894 29.9016 8.45894 29.9648 8.45828C30.3953 8.45403 30.8258 8.45113 31.2563 8.44902C31.4169 8.44805 31.5775 8.44674 31.7382 8.44507C31.9691 8.44274 32.2001 8.44165 32.4311 8.4408C32.5028 8.43981 32.5745 8.43882 32.6484 8.43779C33.2768 8.43766 33.2768 8.43766 33.5424 8.65183C33.6521 8.85675 33.6454 9.07028 33.611 9.29269C33.4514 9.50049 33.3255 9.5679 33.0624 9.61311C32.9249 9.61921 32.7872 9.62176 32.6495 9.62211C32.5649 9.62248 32.4803 9.62285 32.3932 9.62322C32.2996 9.6233 32.2061 9.62338 32.1125 9.62344C32.0138 9.62374 31.9151 9.62406 31.8165 9.6244C31.5485 9.62524 31.2806 9.62566 31.0127 9.62594C30.8453 9.62613 30.6779 9.62639 30.5104 9.62668C29.9864 9.62756 29.4624 9.62818 28.9384 9.62842C28.3338 9.62871 27.7292 9.62984 27.1246 9.63169C26.657 9.63308 26.1894 9.63372 25.7218 9.63381C25.4427 9.63388 25.1635 9.63426 24.8843 9.6354C24.6217 9.63646 24.3591 9.63659 24.0965 9.63603C24.0002 9.63598 23.904 9.63626 23.8077 9.63689C23.6761 9.63771 23.5444 9.63722 23.4127 9.63667C23.3023 9.63681 23.3023 9.63681 23.1897 9.63695C22.8139 9.59374 22.5386 9.43247 22.2967 9.16452C22.1654 8.79637 22.1447 8.30811 22.2774 7.93738C22.549 7.53417 22.9268 7.46956 23.4021 7.47037Z" fill="#FEB206"/>
<path d="M23.2943 4.84169C23.3838 4.84026 23.4733 4.83883 23.5655 4.83735C23.6629 4.83684 23.7602 4.83642 23.8575 4.83609C23.9582 4.83531 24.0589 4.83451 24.1596 4.83369C24.3707 4.83225 24.5818 4.83164 24.7929 4.83149C25.0615 4.83115 25.33 4.82787 25.5986 4.82383C25.8067 4.82119 26.0149 4.82062 26.223 4.82059C26.3219 4.82025 26.4208 4.81918 26.5197 4.81733C27.1951 4.80576 27.669 4.89895 28.1941 5.31923C28.2763 5.4013 28.3574 5.48433 28.4371 5.56852C28.6199 5.74958 28.7396 5.79973 29.0054 5.82058C29.1308 5.82145 29.2562 5.82003 29.3815 5.81665C29.4484 5.81683 29.5152 5.81701 29.5841 5.81719C29.7965 5.81753 30.0088 5.81493 30.2213 5.81189C30.4339 5.80987 30.6465 5.80851 30.8592 5.80865C30.9912 5.80864 31.1231 5.80736 31.2551 5.80461C31.651 5.8034 31.8688 5.84326 32.1713 6.08826C32.2703 6.27338 32.2657 6.39564 32.2398 6.60094C32.0909 6.76583 31.9669 6.88869 31.7598 6.98546C31.6435 6.99196 31.5269 6.99439 31.4103 6.99489C31.2993 6.99558 31.2993 6.99558 31.186 6.99628C31.1044 6.99645 31.0228 6.99662 30.9388 6.9968C30.8103 6.99743 30.8103 6.99743 30.6793 6.99808C30.3948 6.99934 30.1104 7.00009 29.8259 7.00073C29.728 7.00099 29.6301 7.00125 29.5321 7.00152C29.072 7.00274 28.6118 7.00365 28.1517 7.00418C27.6206 7.00481 27.0896 7.0065 26.5586 7.00909C26.1481 7.01102 25.7376 7.01197 25.3271 7.01218C25.0819 7.01233 24.8368 7.01291 24.5916 7.01452C24.318 7.01629 24.0443 7.01602 23.7707 7.01557C23.6491 7.01681 23.6491 7.01681 23.5252 7.01806C23.0937 7.0155 22.8304 7.00071 22.5027 6.72911C22.4617 6.69607 22.4207 6.66303 22.3784 6.62898C22.1839 6.40888 22.2124 6.14355 22.207 5.87197C22.2044 5.78821 22.2019 5.70444 22.1992 5.61813C22.2331 5.34539 22.2934 5.25154 22.5027 5.06289C22.7727 4.88108 22.9636 4.84559 23.2943 4.84169Z" fill="#FDB205"/>
<path d="M24.2821 28.3373C24.3697 28.3374 24.4572 28.3374 24.5475 28.3374C24.731 28.3379 24.9142 28.3393 25.0977 28.3422C25.3319 28.3459 25.5659 28.3464 25.8002 28.3459C26.0256 28.3456 26.251 28.3475 26.4764 28.3493C26.6018 28.3495 26.6018 28.3495 26.7297 28.3496C27.2934 28.3599 27.5344 28.4273 27.9424 28.7889C28.0982 29.0332 28.0965 29.2284 28.0902 29.5076C28.0918 29.5786 28.0918 29.5786 28.0935 29.651C28.0909 29.9835 28.0289 30.1868 27.7817 30.4409C27.3729 30.7061 26.9896 30.7339 26.5038 30.7294C26.4328 30.7297 26.3619 30.7301 26.2887 30.7304C26.0555 30.7312 25.8223 30.7302 25.589 30.729C25.4263 30.729 25.2635 30.7291 25.1008 30.7293C24.7604 30.7294 24.42 30.7286 24.0796 30.7271C23.6434 30.7253 23.2074 30.7255 22.7713 30.7263C22.4355 30.7267 22.0997 30.7262 21.7639 30.7254C21.6031 30.7252 21.4423 30.7251 21.2815 30.7254C21.0568 30.7256 20.8322 30.7245 20.6075 30.7231C20.5081 30.7236 20.5081 30.7236 20.4067 30.724C20.0494 30.7203 19.7907 30.697 19.4845 30.505C19.3025 30.2497 19.2887 30.0362 19.3474 29.7359C19.5446 29.5419 19.7192 29.4185 20.0083 29.4105C20.0837 29.4114 20.159 29.4123 20.2367 29.4133C20.3198 29.4129 20.4029 29.4125 20.4885 29.4121C20.6628 29.4117 20.8371 29.413 21.0113 29.4161C21.5599 29.4099 21.8479 29.3363 22.2498 28.9859C22.8722 28.4864 23.4754 28.3226 24.2821 28.3373Z" fill="#FEB205"/>
<path d="M12.0386 6.37629C12.2971 6.42272 12.4096 6.53216 12.5598 6.72876C12.656 6.90856 12.6382 7.05841 12.6395 7.25953C12.64 7.32145 12.64 7.32145 12.6405 7.38462C12.6415 7.52148 12.642 7.65833 12.6423 7.79518C12.6427 7.89034 12.6431 7.98551 12.6435 8.08067C12.6442 8.28043 12.6446 8.48019 12.6449 8.67996C12.6453 8.93539 12.6469 9.1908 12.6489 9.44622C12.6501 9.64294 12.6505 9.83965 12.6506 10.0364C12.6508 10.1305 12.6514 10.2246 12.6523 10.3187C12.6534 10.4508 12.6533 10.5828 12.6528 10.7149C12.6532 10.8274 12.6532 10.8274 12.6536 10.9423C12.6153 11.2589 12.5036 11.4567 12.268 11.6852C12.0322 11.8184 11.8805 11.8244 11.6057 11.8257C11.5363 11.8265 11.5363 11.8265 11.4654 11.8274C11.313 11.8288 11.1608 11.8284 11.0084 11.8278C10.9021 11.8281 10.7958 11.8285 10.6895 11.829C10.467 11.8297 10.2445 11.8294 10.022 11.8285C9.73723 11.8273 9.45254 11.8289 9.16776 11.8311C8.94833 11.8325 8.72892 11.8324 8.50949 11.8319C8.40451 11.8318 8.29952 11.8323 8.19455 11.8332C8.04762 11.8343 7.90086 11.8334 7.75394 11.832C7.67047 11.8319 7.58699 11.8318 7.50098 11.8318C7.21836 11.7803 7.11742 11.6758 6.93698 11.4711C6.83192 11.2747 6.85268 11.1111 6.86841 10.8943C6.99351 10.6236 7.13831 10.5127 7.41698 10.3816C7.59936 10.3621 7.59936 10.3621 7.79359 10.3669C7.86456 10.3669 7.93554 10.3669 8.00867 10.367C8.15655 10.3687 8.30442 10.3717 8.45225 10.376C8.86277 10.3791 8.86277 10.3791 9.21437 10.2045C9.34265 10.0694 9.34265 10.0694 9.44683 9.9277C9.54269 9.80486 9.54269 9.80486 9.74841 9.67669C9.96698 9.66868 9.96698 9.66868 10.1598 9.67669C10.1513 9.6225 10.1429 9.56831 10.1341 9.51247C10.1698 9.20647 10.3362 9.05016 10.5713 8.84358C10.757 8.75678 10.9148 8.77533 11.1198 8.7795C11.118 8.71905 11.1162 8.65861 11.1144 8.59633C11.1085 8.37119 11.1042 8.14611 11.101 7.92093C11.0993 7.82364 11.0969 7.72636 11.094 7.6291C11.0898 7.48893 11.0879 7.34887 11.0864 7.20865C11.0846 7.12441 11.0828 7.04018 11.0809 6.95339C11.171 6.43328 11.5463 6.35645 12.0386 6.37629Z" fill="#517712"/>
<path d="M38.815 34.4016C38.9428 34.4001 38.9428 34.4001 39.0731 34.3985C39.1665 34.3978 39.2599 34.3971 39.3534 34.3965C39.4004 34.3961 39.4474 34.3958 39.4959 34.3954C39.7449 34.3937 39.9939 34.3925 40.2429 34.3915C40.4487 34.3907 40.6545 34.3889 40.8602 34.3863C41.1089 34.3831 41.3576 34.3815 41.6063 34.3811C41.7009 34.3807 41.7955 34.3797 41.8901 34.3781C42.7228 34.3654 42.7228 34.3654 42.9921 34.5683C43.2226 34.8257 43.24 34.9747 43.2094 35.3112C43.0863 35.4876 43.0001 35.6012 42.798 35.6957C42.6788 35.7055 42.5592 35.7117 42.4396 35.716C42.3689 35.7186 42.2982 35.7213 42.2253 35.7241C42.1513 35.7266 42.0772 35.7291 42.0009 35.7317C41.9263 35.7345 41.8517 35.7373 41.7748 35.7401C41.5902 35.7469 41.4055 35.7535 41.2209 35.7598C41.1908 35.8299 41.1608 35.9 41.1298 35.9723C41.0015 36.2509 40.8806 36.3646 40.6037 36.5288C40.338 36.5488 40.338 36.5488 40.1237 36.5288C40.1174 36.6438 40.1174 36.6438 40.1109 36.7611C40.0666 37.0762 39.9695 37.2163 39.7123 37.426C39.5295 37.4653 39.3513 37.4745 39.1637 37.4901C39.1648 37.5331 39.1659 37.576 39.167 37.6203C39.1713 37.8159 39.1739 38.0114 39.1766 38.207C39.1783 38.2747 39.18 38.3423 39.1818 38.4119C39.1825 38.4774 39.1831 38.5429 39.1838 38.6103C39.1849 38.6704 39.186 38.7305 39.1871 38.7924C39.1589 38.9998 39.0896 39.1165 38.958 39.2845C38.7008 39.4447 38.5769 39.447 38.2723 39.4126C38.0556 39.2498 37.949 39.1469 37.8609 38.9C37.8527 38.7736 37.8486 38.6471 37.8466 38.5205C37.8452 38.4424 37.8439 38.3643 37.8426 38.2839C37.8386 37.9268 37.8352 37.5697 37.8331 37.2125C37.8319 37.0242 37.8295 36.8359 37.8261 36.6475C37.8219 36.4196 37.8198 36.1917 37.8192 35.9637C37.8183 35.8353 37.8154 35.7068 37.8125 35.5783C37.8141 34.926 37.8141 34.926 38.0607 34.6497C38.3076 34.4267 38.4735 34.4054 38.815 34.4016Z" fill="#507711"/>
<path d="M24.707 25.6707C24.7814 25.6704 24.8559 25.6701 24.9327 25.6697C25.09 25.6693 25.2474 25.6694 25.4047 25.6699C25.6448 25.6705 25.8847 25.6686 26.1247 25.6666C26.2779 25.6665 26.431 25.6665 26.5841 25.6667C26.6913 25.6657 26.6913 25.6657 26.8006 25.6646C27.2336 25.6684 27.4962 25.7151 27.8489 25.9549C28.0753 26.208 28.0843 26.4279 28.0846 26.7519C28.086 26.8338 28.0873 26.9157 28.0887 27C28.0421 27.324 27.8995 27.5232 27.6389 27.7372C27.3472 27.9043 27.0599 27.8873 26.7296 27.8878C26.6714 27.8881 26.6132 27.8884 26.5532 27.8887C26.3604 27.8897 26.1675 27.8901 25.9747 27.8904C25.8407 27.8908 25.7067 27.8912 25.5727 27.8916C25.2916 27.8922 25.0104 27.8926 24.7293 27.8928C24.3694 27.8932 24.0095 27.8947 23.6495 27.8965C23.3726 27.8977 23.0957 27.8981 22.8188 27.8982C22.6862 27.8984 22.5535 27.8989 22.4208 27.8997C22.235 27.9008 22.0492 27.9007 21.8634 27.9003C21.8088 27.9009 21.7542 27.9015 21.6979 27.9021C21.3668 27.8997 21.1431 27.8535 20.8546 27.6852C20.7208 27.5259 20.7152 27.4119 20.6875 27.2085C20.7175 26.9802 20.7175 26.9802 20.8359 26.807C21.1847 26.5782 21.5242 26.6257 21.9389 26.6398C22.0191 26.6412 22.0994 26.6427 22.182 26.6442C22.3796 26.6479 22.5771 26.6532 22.7746 26.6598C22.7941 26.6202 22.8137 26.5806 22.8338 26.5398C22.937 26.3595 23.0697 26.2683 23.2418 26.1431C23.3002 26.1001 23.3586 26.057 23.4188 26.0127C23.4778 25.9725 23.5368 25.9322 23.5975 25.8908C23.6642 25.8403 23.6642 25.8403 23.7322 25.7888C24.051 25.6506 24.3596 25.6698 24.707 25.6707Z" fill="#FEB204"/>
<path d="M24.702 31.184C24.8115 31.1838 24.8115 31.1838 24.9233 31.1835C25.0773 31.1834 25.2313 31.1837 25.3853 31.1845C25.6205 31.1855 25.8556 31.1845 26.0908 31.1833C26.2407 31.1834 26.3906 31.1837 26.5406 31.184C26.6457 31.1835 26.6457 31.1835 26.7529 31.1829C27.2344 31.1873 27.5245 31.2641 27.9098 31.546C28.1416 31.822 28.0906 32.187 28.0877 32.5196C28.0425 32.8402 27.9313 33.0012 27.6741 33.2122C27.3862 33.4055 27.1643 33.3983 26.8195 33.3988C26.7626 33.3991 26.7057 33.3994 26.6471 33.3998C26.4584 33.4007 26.2696 33.4011 26.0809 33.4015C25.9499 33.4019 25.8188 33.4022 25.6878 33.4026C25.4127 33.4033 25.1377 33.4037 24.8626 33.4039C24.5104 33.4042 24.1582 33.4058 23.8061 33.4076C23.5352 33.4088 23.2644 33.4091 22.9935 33.4092C22.8637 33.4094 22.7339 33.4099 22.6041 33.4108C22.4223 33.4119 22.2404 33.4117 22.0586 33.4113C22.0051 33.4119 21.9517 33.4125 21.8966 33.4131C21.567 33.4108 21.3415 33.3591 21.0613 33.1962C20.8813 32.9821 20.8939 32.7547 20.9241 32.4913C21.0763 32.305 21.1655 32.2452 21.4041 32.1709C21.5057 32.1657 21.6075 32.164 21.7092 32.1646C21.7673 32.1648 21.8255 32.165 21.8853 32.1652C21.9458 32.1658 22.0062 32.1663 22.0684 32.1669C22.1602 32.1673 22.1602 32.1673 22.2539 32.1677C22.4049 32.1685 22.556 32.1695 22.707 32.1709C22.7265 32.1312 22.7461 32.0916 22.7663 32.0508C22.8687 31.8715 22.9993 31.7795 23.1698 31.6542C23.2275 31.6111 23.2851 31.5681 23.3445 31.5237C23.8064 31.2199 24.1496 31.181 24.702 31.184Z" fill="#FEB102"/>
<path d="M20.7188 21.4045C21.2618 21.4045 21.8049 21.4045 22.3645 21.4045C22.3645 21.468 22.3645 21.5314 22.3645 21.5968C22.2513 21.6179 22.1382 21.6391 22.0216 21.6609C22.1217 22.0012 22.2947 22.2673 22.5016 22.5581C22.8718 22.1583 22.8718 22.1583 22.9816 21.6609C22.8911 21.6397 22.8006 21.6186 22.7073 21.5968C22.7073 21.5334 22.7073 21.4699 22.7073 21.4045C23.703 21.4045 24.6986 21.4045 25.7245 21.4045C25.7245 21.4468 25.7245 21.4891 25.7245 21.5327C25.6113 21.5539 25.4982 21.575 25.3816 21.5968C25.3816 22.5696 25.3816 23.5424 25.3816 24.5447C25.4947 24.587 25.6079 24.6293 25.7245 24.6729C25.7245 24.7363 25.7245 24.7998 25.7245 24.8652C24.593 24.8652 23.4616 24.8652 22.2959 24.8652C22.3185 24.8017 22.3411 24.7383 22.3645 24.6729C22.4776 24.6729 22.5907 24.6729 22.7073 24.6729C22.5931 24.2779 22.3728 23.937 22.1587 23.5834C21.7742 23.9838 21.7742 23.9838 21.593 24.4726C21.6015 24.54 21.6015 24.54 21.6102 24.6088C21.7007 24.63 21.7912 24.6511 21.8845 24.6729C21.8845 24.7363 21.8845 24.7998 21.8845 24.8652C21.4998 24.8652 21.1151 24.8652 20.7188 24.8652C20.7188 24.8017 20.7188 24.7383 20.7188 24.6729C20.7774 24.6522 20.8361 24.6314 20.8966 24.6101C21.2079 24.4376 21.3707 24.2218 21.5759 23.9479C21.6144 23.9001 21.653 23.8522 21.6927 23.8029C21.9054 23.5308 21.9054 23.5308 21.9356 23.2074C21.7554 22.9052 21.5703 22.6075 21.3745 22.3138C21.3343 22.2518 21.2941 22.1899 21.2527 22.1261C21.2138 22.0674 21.1748 22.0086 21.1347 21.948C21.0993 21.8944 21.0639 21.8408 21.0275 21.7856C20.929 21.6424 20.929 21.6424 20.7188 21.5968C20.7188 21.5334 20.7188 21.4699 20.7188 21.4045Z" fill="#FBFBFB"/>
<path d="M25.8683 33.8027C26.0427 33.8054 26.2169 33.8053 26.3914 33.8049C26.5032 33.8055 26.615 33.8064 26.7267 33.8074C26.7784 33.8074 26.83 33.8074 26.8833 33.8074C27.312 33.8163 27.578 33.9301 27.9112 34.1739C28.143 34.4515 28.0954 34.8059 28.0958 35.1412C28.0377 35.4914 27.8918 35.6794 27.5965 35.8972C27.3391 36.0333 27.1903 36.0488 26.8967 36.0495C26.8511 36.0499 26.8056 36.0504 26.7587 36.0509C26.6092 36.052 26.4599 36.0512 26.3105 36.0504C26.206 36.0505 26.1015 36.0508 25.997 36.0511C25.7784 36.0515 25.5599 36.0509 25.3413 36.0497C25.0618 36.0483 24.7824 36.0491 24.503 36.0507C24.2873 36.0516 24.0716 36.0513 23.856 36.0506C23.753 36.0505 23.65 36.0507 23.5469 36.0513C23.4027 36.0519 23.2585 36.0509 23.1143 36.0495C23.0324 36.0493 22.9505 36.0491 22.8661 36.0489C22.5753 36.007 22.3683 35.8908 22.1598 35.6959C22.1386 35.5585 22.1386 35.5585 22.1298 35.3875C22.1256 35.3316 22.1215 35.2756 22.1172 35.218C22.1598 35.055 22.1598 35.055 22.336 34.9068C22.6066 34.7824 22.7735 34.7788 23.0726 34.7867C23.4707 34.7725 23.6624 34.735 23.9383 34.4623C23.98 34.413 24.0216 34.3638 24.0645 34.3131C24.5936 33.7742 25.1251 33.7906 25.8683 33.8027Z" fill="#FDB103"/>
<path d="M30.25 21.4046C30.5586 21.3971 30.8671 21.3926 31.1757 21.3886C31.3062 21.3854 31.3062 21.3854 31.4393 21.3821C32.0409 21.3762 32.4305 21.4186 32.89 21.8051C33.0259 22.0381 33.0549 22.2381 32.9929 22.4941C32.8663 22.719 32.7223 22.8575 32.4571 22.9346C32.4076 22.9373 32.3581 22.9399 32.3071 22.9427C32.3071 22.9849 32.3071 23.0272 32.3071 23.0708C32.368 23.0748 32.4288 23.0788 32.4914 23.0828C32.7717 23.1471 32.8765 23.2528 33.0614 23.4553C33.1907 23.6969 33.1733 23.9619 33.13 24.2244C32.9574 24.5458 32.7081 24.7092 32.3461 24.8285C31.9624 24.9085 31.5666 24.8845 31.1757 24.8772C31.0421 24.8759 31.0421 24.8759 30.9057 24.8746C30.6871 24.8724 30.4686 24.8692 30.25 24.8652C30.25 24.8018 30.25 24.7383 30.25 24.673C30.3631 24.6307 30.4763 24.5884 30.5929 24.5448C30.5929 23.572 30.5929 22.5992 30.5929 21.5969C30.4797 21.5969 30.3666 21.5969 30.25 21.5969C30.25 21.5334 30.25 21.47 30.25 21.4046Z" fill="#161616"/>
<path d="M14.2031 21.4047C14.4738 21.3983 14.7444 21.3936 15.0151 21.3906C15.1516 21.3887 15.2881 21.3854 15.4246 21.3821C15.9554 21.3771 16.4127 21.4019 16.8774 21.661C17.0863 21.8702 17.1439 21.9871 17.1817 22.2698C17.1372 22.6023 17.0346 22.7999 16.7746 23.0308C16.6031 23.135 16.6031 23.135 16.3974 23.135C16.4282 23.1806 16.459 23.2261 16.4907 23.2731C16.605 23.4425 16.7191 23.612 16.8331 23.7815C16.8824 23.8549 16.9319 23.9282 16.9814 24.0014C17.0525 24.1067 17.1234 24.2123 17.1943 24.3178C17.237 24.3812 17.2798 24.4447 17.3238 24.51C17.426 24.673 17.426 24.673 17.4946 24.8653C17.2212 24.9491 16.9588 24.9985 16.6736 24.9378C16.1719 24.6761 15.9044 23.939 15.663 23.4757C15.5892 23.319 15.5892 23.319 15.4374 23.2631C15.46 23.6861 15.4827 24.1091 15.506 24.5449C15.6191 24.5872 15.7323 24.6294 15.8488 24.673C15.8488 24.7365 15.8488 24.7999 15.8488 24.8653C15.3058 24.8653 14.7627 24.8653 14.2031 24.8653C14.2258 24.8018 14.2484 24.7384 14.2717 24.673C14.3624 24.6492 14.4539 24.6278 14.546 24.6089C14.624 24.4632 14.6232 24.383 14.6234 24.2212C14.6238 24.141 14.6238 24.141 14.6241 24.0592C14.6239 24.0013 14.6238 23.9435 14.6237 23.884C14.6238 23.7951 14.6238 23.7951 14.6239 23.7044C14.6239 23.579 14.6238 23.4536 14.6235 23.3282C14.6231 23.1358 14.6235 22.9434 14.6239 22.751C14.6239 22.6293 14.6238 22.5076 14.6237 22.386C14.6238 22.3282 14.6239 22.2704 14.6241 22.2108C14.6239 22.1573 14.6236 22.1039 14.6234 22.0488C14.6234 22.0016 14.6233 21.9545 14.6233 21.9059C14.6221 21.7828 14.6221 21.7828 14.546 21.661C14.4333 21.6148 14.319 21.5717 14.2031 21.5328C14.2031 21.4905 14.2031 21.4482 14.2031 21.4047Z" fill="#0F0F0F"/>
<path d="M26.7405 36.5609C26.8007 36.5591 26.8608 36.5573 26.9228 36.5554C27.2966 36.5544 27.5376 36.6011 27.8278 36.828C28.0882 37.0716 28.0783 37.3059 28.0819 37.6424C28.0839 37.7248 28.0858 37.8073 28.0878 37.8922C28.0506 38.1732 27.9797 38.3025 27.7819 38.5156C27.4169 38.7391 27.0891 38.7368 26.6674 38.7356C26.6003 38.7359 26.5332 38.7363 26.4641 38.7366C26.3227 38.737 26.1813 38.7369 26.0399 38.7364C25.8238 38.7358 25.6078 38.7377 25.3917 38.7397C25.2541 38.7398 25.1165 38.7398 24.9788 38.7396C24.8822 38.7407 24.8822 38.7407 24.7836 38.7418C24.49 38.7389 24.3284 38.7331 24.0743 38.5857C23.9029 38.4118 23.8765 38.3494 23.8477 38.111C23.8734 37.8747 23.8734 37.8747 24.0234 37.6945C24.2955 37.4966 24.4646 37.4276 24.8119 37.4221C25.1765 37.3891 25.3843 37.1578 25.6359 36.9279C25.6878 36.8808 25.7398 36.8338 25.7934 36.7852C25.8315 36.7481 25.8696 36.7109 25.9088 36.6726C26.173 36.5402 26.4458 36.5601 26.7405 36.5609Z" fill="#FDB103"/>
<path d="M25.8615 21.4045C26.2462 21.4045 26.6309 21.4045 27.0273 21.4045C27.2872 21.8586 27.4736 22.331 27.6615 22.8144C27.6933 22.8955 27.7251 22.9765 27.7569 23.0575C27.834 23.2541 27.9107 23.4508 27.9873 23.6475C28.2091 23.157 28.4211 22.6641 28.6215 22.1656C28.669 22.0479 28.7165 21.9302 28.764 21.8126C28.7845 21.7618 28.8049 21.711 28.826 21.6586C28.8787 21.5327 28.8787 21.5327 28.9473 21.4045C29.3546 21.4045 29.7619 21.4045 30.1815 21.4045C30.1815 21.468 30.1815 21.5314 30.1815 21.5968C30.0684 21.6391 29.9553 21.6814 29.8387 21.725C29.8387 22.6555 29.8387 23.586 29.8387 24.5447C29.9518 24.587 30.065 24.6293 30.1815 24.6729C30.1815 24.7363 30.1815 24.7998 30.1815 24.8652C29.6385 24.8652 29.0954 24.8652 28.5358 24.8652C28.5585 24.8017 28.5811 24.7383 28.6044 24.6729C28.7175 24.6306 28.8307 24.5883 28.9473 24.5447C28.9473 23.6988 28.9473 22.8529 28.9473 21.9813C28.8553 22.2205 28.7634 22.4598 28.6687 22.7063C28.612 22.8529 28.5553 22.9995 28.4986 23.1461C28.3941 23.4165 28.2909 23.6873 28.1895 23.9587C28.1478 24.0686 28.1061 24.1785 28.0644 24.2884C28.0363 24.3653 28.0363 24.3653 28.0076 24.4437C27.9611 24.565 27.9063 24.6834 27.8501 24.8011C27.7483 24.8328 27.7483 24.8328 27.6444 24.8652C27.4991 24.5036 27.3539 24.1421 27.2087 23.7805C27.1593 23.6575 27.1099 23.5345 27.0605 23.4115C26.9894 23.2347 26.9185 23.058 26.8475 22.8813C26.8254 22.8262 26.8032 22.7711 26.7804 22.7144C26.7598 22.663 26.7392 22.6117 26.718 22.5589C26.6999 22.5138 26.6818 22.4687 26.6631 22.4222C26.6225 22.3186 26.5846 22.2141 26.5473 22.1095C26.5456 22.4448 26.5443 22.7802 26.5435 23.1155C26.5431 23.2296 26.5427 23.3438 26.5421 23.4579C26.5413 23.6217 26.5409 23.7856 26.5406 23.9494C26.5402 24.0006 26.5399 24.0518 26.5395 24.1046C26.5326 24.3651 26.5326 24.3651 26.6158 24.6088C26.7891 24.6508 26.7891 24.6508 26.9587 24.6729C26.9587 24.7363 26.9587 24.7998 26.9587 24.8652C26.574 24.8652 26.1893 24.8652 25.793 24.8652C25.8156 24.8017 25.8382 24.7383 25.8615 24.6729C25.9523 24.6491 26.0438 24.6276 26.1358 24.6088C26.215 24.4609 26.2127 24.3776 26.2122 24.2131C26.2122 24.158 26.2122 24.1028 26.2122 24.046C26.2118 23.9864 26.2115 23.9267 26.2111 23.8653C26.211 23.8043 26.2109 23.7434 26.2108 23.6805C26.2104 23.4853 26.2096 23.29 26.2087 23.0948C26.2083 22.9626 26.208 22.8304 26.2077 22.6983C26.207 22.3738 26.2058 22.0494 26.2044 21.725C26.0347 21.6615 26.0347 21.6615 25.8615 21.5968C25.8615 21.5334 25.8615 21.4699 25.8615 21.4045Z" fill="#0E0E0E"/>
<path d="M40.125 21.4045C40.6681 21.4045 41.2112 21.4045 41.7707 21.4045C41.7707 21.468 41.7707 21.5314 41.7707 21.5968C41.6576 21.6391 41.5444 21.6814 41.4279 21.725C41.4279 22.1268 41.4279 22.5286 41.4279 22.9426C41.6421 22.7344 41.6421 22.7344 41.8607 22.522C41.9054 22.4793 41.95 22.4365 41.9961 22.3925C42.2496 22.1416 42.4009 21.9222 42.525 21.5968C42.3892 21.5968 42.2535 21.5968 42.1136 21.5968C42.1136 21.5334 42.1136 21.4699 42.1136 21.4045C42.5888 21.4045 43.064 21.4045 43.5536 21.4045C43.5536 21.468 43.5536 21.5314 43.5536 21.5968C43.4857 21.6087 43.4178 21.6206 43.3479 21.6328C42.7904 21.7831 42.4018 22.285 42.045 22.6862C42.3267 23.1213 42.6302 23.5313 42.9671 23.93C43.1064 24.0952 43.2347 24.2596 43.3556 24.4373C43.4703 24.6254 43.4703 24.6254 43.6907 24.6729C43.6907 24.7363 43.6907 24.7998 43.6907 24.8652C43.1476 24.8652 42.6045 24.8652 42.045 24.8652C42.045 24.8017 42.045 24.7383 42.045 24.6729C42.1808 24.6729 42.3165 24.6729 42.4564 24.6729C41.9993 23.9855 41.9993 23.9855 41.4964 23.3271C41.4738 23.3271 41.4512 23.3271 41.4279 23.3271C41.4279 23.7289 41.4279 24.1307 41.4279 24.5447C41.541 24.587 41.6541 24.6293 41.7707 24.6729C41.7707 24.7363 41.7707 24.7998 41.7707 24.8652C41.2276 24.8652 40.6845 24.8652 40.125 24.8652C40.125 24.8017 40.125 24.7383 40.125 24.6729C40.2381 24.6306 40.3513 24.5883 40.4679 24.5447C40.4679 23.6142 40.4679 22.6837 40.4679 21.725C40.2981 21.6615 40.2981 21.6615 40.125 21.5968C40.125 21.5334 40.125 21.4699 40.125 21.4045Z" fill="#111111"/>
<path d="M20.7188 21.4045C21.2618 21.4045 21.8049 21.4045 22.3645 21.4045C22.3645 21.468 22.3645 21.5314 22.3645 21.5968C22.2513 21.6179 22.1382 21.6391 22.0216 21.6609C22.1217 22.0012 22.2947 22.2673 22.5016 22.5581C22.8718 22.1583 22.8718 22.1583 22.9816 21.6609C22.8911 21.6397 22.8006 21.6186 22.7073 21.5968C22.7073 21.5334 22.7073 21.4699 22.7073 21.4045C23.1146 21.4045 23.522 21.4045 23.9416 21.4045C23.919 21.468 23.8963 21.5314 23.873 21.5968C23.82 21.6165 23.767 21.6361 23.7123 21.6564C23.3938 21.7763 23.2429 22.0461 23.0502 22.3017C23.0133 22.3482 22.9765 22.3946 22.9385 22.4424C22.906 22.4859 22.8736 22.5293 22.8402 22.5741C22.8111 22.6128 22.782 22.6514 22.7521 22.6913C22.6862 22.8726 22.7613 22.9628 22.8445 23.1348C22.9827 23.3766 23.1328 23.6117 23.2816 23.8478C23.3212 23.912 23.3608 23.9762 23.4016 24.0423C23.4403 24.1039 23.479 24.1654 23.5189 24.2288C23.554 24.2848 23.589 24.3408 23.6251 24.3986C23.7385 24.5481 23.8534 24.6299 24.0102 24.737C24.0102 24.7793 24.0102 24.8216 24.0102 24.8652C23.4445 24.8652 22.8787 24.8652 22.2959 24.8652C22.3185 24.8017 22.3411 24.7383 22.3645 24.6729C22.4776 24.6729 22.5907 24.6729 22.7073 24.6729C22.5931 24.2779 22.3728 23.937 22.1587 23.5834C21.7742 23.9838 21.7742 23.9838 21.593 24.4726C21.6015 24.54 21.6015 24.54 21.6102 24.6088C21.7007 24.63 21.7912 24.6511 21.8845 24.6729C21.8845 24.7363 21.8845 24.7998 21.8845 24.8652C21.4998 24.8652 21.1151 24.8652 20.7188 24.8652C20.7188 24.8017 20.7188 24.7383 20.7188 24.6729C20.7774 24.6522 20.8361 24.6314 20.8966 24.6101C21.2079 24.4376 21.3707 24.2218 21.5759 23.9479C21.6144 23.9001 21.653 23.8522 21.6927 23.8029C21.9054 23.5308 21.9054 23.5308 21.9356 23.2074C21.7554 22.9052 21.5703 22.6075 21.3745 22.3138C21.3343 22.2518 21.2941 22.1899 21.2527 22.1261C21.2138 22.0674 21.1748 22.0086 21.1347 21.948C21.0993 21.8944 21.0639 21.8408 21.0275 21.7856C20.929 21.6424 20.929 21.6424 20.7188 21.5968C20.7188 21.5334 20.7188 21.4699 20.7188 21.4045Z" fill="#0F0F0F"/>
<path d="M17.6328 21.4045C18.538 21.4045 19.4431 21.4045 20.3757 21.4045C20.3757 21.7429 20.3757 22.0813 20.3757 22.4299C20.3304 22.4299 20.2852 22.4299 20.2385 22.4299C20.2148 22.3708 20.2148 22.3708 20.1906 22.3105C20.0925 22.0833 20.0096 21.8955 19.8228 21.721C19.503 21.6256 19.2016 21.6496 18.8671 21.6609C18.8445 22.105 18.8218 22.5491 18.7985 23.0067C19.3234 22.8814 19.3234 22.8814 19.4457 22.6695C19.4584 22.6182 19.4711 22.5669 19.4842 22.514C19.5055 22.4363 19.5055 22.4363 19.5271 22.3571C19.5356 22.3177 19.5441 22.2783 19.5528 22.2377C19.5981 22.2377 19.6433 22.2377 19.69 22.2377C19.69 22.8087 19.69 23.3797 19.69 23.968C19.6447 23.968 19.5994 23.968 19.5528 23.968C19.5396 23.9278 19.5263 23.8877 19.5126 23.8463C19.4948 23.7939 19.4769 23.7415 19.4585 23.6876C19.441 23.6355 19.4235 23.5835 19.4055 23.5299C19.3541 23.3806 19.3541 23.3806 19.21 23.263C19.0736 23.2375 18.9364 23.2157 18.7985 23.1989C18.808 23.4219 18.8182 23.6449 18.8285 23.8678C18.8312 23.9315 18.8339 23.9951 18.8367 24.0607C18.8396 24.1212 18.8424 24.1817 18.8454 24.2441C18.8479 24.3001 18.8504 24.3562 18.853 24.4139C18.8521 24.5443 18.8521 24.5443 18.9357 24.6088C19.3383 24.6508 19.6864 24.6242 20.0328 24.4166C20.1555 24.2525 20.2586 24.0865 20.3577 23.9091C20.3863 23.8651 20.4148 23.8211 20.4442 23.7757C20.4895 23.7757 20.5348 23.7757 20.5814 23.7757C20.5603 23.9453 20.5388 24.1148 20.5171 24.2844C20.5111 24.3327 20.5052 24.3811 20.499 24.431C20.452 24.7938 20.452 24.7938 20.3757 24.8652C20.1729 24.8708 19.9717 24.8725 19.769 24.8714C19.6778 24.8713 19.6778 24.8713 19.5848 24.8711C19.3898 24.8708 19.1949 24.87 19 24.8692C18.8681 24.8688 18.7363 24.8685 18.6045 24.8683C18.2806 24.8676 17.9567 24.8665 17.6328 24.8652C17.6328 24.8017 17.6328 24.7383 17.6328 24.6729C17.746 24.6306 17.8591 24.5883 17.9757 24.5447C17.9841 24.1467 17.9904 23.7487 17.9945 23.3506C17.9962 23.2151 17.9986 23.0796 18.0015 22.9442C18.0057 22.7496 18.0076 22.5552 18.0092 22.3606C18.0109 22.2999 18.0127 22.2392 18.0145 22.1767C18.0146 22.0194 18.0129 21.8783 17.9757 21.725C17.8123 21.5925 17.8123 21.5925 17.6328 21.5327C17.6328 21.4904 17.6328 21.4481 17.6328 21.4045Z" fill="#020202"/>
<path d="M36.7639 21.4044C37.1125 21.3363 37.4527 21.2866 37.7925 21.4044C38.1105 21.6523 38.3075 22.0123 38.5154 22.3414C38.6757 22.5861 38.8596 22.8134 39.0439 23.0426C39.1072 23.1228 39.1704 23.2029 39.2335 23.2832C39.2784 23.3399 39.3233 23.3967 39.3696 23.4552C39.3815 23.1828 39.3889 22.9106 39.3953 22.6381C39.3988 22.5608 39.4022 22.4834 39.4058 22.4038C39.4336 22.0189 39.4336 22.0189 39.2762 21.6832C39.1515 21.6055 39.1515 21.6055 38.9582 21.5326C38.9582 21.4903 38.9582 21.448 38.9582 21.4044C39.2976 21.4044 39.637 21.4044 39.9867 21.4044C39.9182 21.5967 39.9182 21.5967 39.7125 21.7249C39.6798 21.8668 39.6798 21.8668 39.6828 22.0336C39.6814 22.0977 39.6801 22.1618 39.6787 22.2279C39.678 22.3321 39.678 22.3321 39.6774 22.4383C39.6761 22.5092 39.6749 22.5802 39.6736 22.6533C39.6699 22.8805 39.6676 23.1077 39.6653 23.335C39.663 23.4888 39.6607 23.6426 39.6582 23.7964C39.6524 24.1739 39.6477 24.5515 39.6439 24.9291C39.576 24.9291 39.5081 24.9291 39.4382 24.9291C39.3075 24.7755 39.1903 24.6232 39.0739 24.4605C39.0008 24.361 38.9276 24.2615 38.8542 24.1621C38.8157 24.1096 38.7771 24.0572 38.7373 24.0031C38.5294 23.7245 38.3131 23.4517 38.0967 23.1788C38.0559 23.1272 38.0151 23.0756 37.973 23.0224C37.7993 22.803 37.625 22.584 37.4496 22.3657C37.4479 22.6645 37.4467 22.9634 37.4458 23.2622C37.4455 23.3639 37.445 23.4656 37.4444 23.5673C37.4436 23.7133 37.4432 23.8594 37.4429 24.0054C37.4425 24.051 37.4422 24.0966 37.4418 24.1436C37.4377 24.3841 37.4377 24.3841 37.5182 24.6087C37.6309 24.6549 37.7452 24.698 37.861 24.7369C37.861 24.7792 37.861 24.8215 37.861 24.865C37.4763 24.865 37.0917 24.865 36.6953 24.865C36.7179 24.8016 36.7406 24.7382 36.7639 24.6728C36.8546 24.6489 36.9461 24.6275 37.0382 24.6087C37.2137 24.2806 37.1282 23.762 37.1307 23.3968C37.1319 23.2759 37.1338 23.1551 37.1364 23.0343C37.1401 22.8598 37.1416 22.6854 37.1426 22.5109C37.1442 22.4572 37.1457 22.4035 37.1473 22.3482C37.1459 21.9619 37.0502 21.8087 36.7639 21.5326C36.7639 21.4903 36.7639 21.448 36.7639 21.4044Z" fill="#0C0C0C"/>
<path d="M34.9131 21.3403C35.1188 21.4044 35.1188 21.4044 35.1899 21.528C35.2112 21.5822 35.2325 21.6363 35.2544 21.692C35.2788 21.7532 35.3033 21.8144 35.3285 21.8774C35.3543 21.9439 35.38 22.0105 35.4065 22.0791C35.4334 22.1469 35.4604 22.2148 35.4881 22.2848C35.5743 22.5024 35.6594 22.7204 35.7445 22.9385C35.8303 23.1562 35.9163 23.3738 36.0024 23.5915C36.0559 23.7271 36.1093 23.8628 36.1624 23.9986C36.1864 24.06 36.2105 24.1214 36.2353 24.1846C36.2564 24.2388 36.2776 24.2929 36.2994 24.3488C36.3509 24.4818 36.3509 24.4818 36.4217 24.6087C36.4895 24.6298 36.5574 24.651 36.6274 24.6728C36.6274 24.7362 36.6274 24.7997 36.6274 24.865C36.1069 24.865 35.5865 24.865 35.0502 24.865C35.0729 24.8016 35.0955 24.7381 35.1188 24.6728C35.2602 24.6287 35.2602 24.6287 35.3931 24.6087C35.3832 24.5294 35.3733 24.4501 35.3631 24.3684C35.3575 24.3238 35.3519 24.2792 35.3462 24.2332C35.3236 24.0749 35.3236 24.0749 35.2559 23.8397C34.8939 23.8397 34.5318 23.8397 34.1588 23.8397C34.1362 23.919 34.1135 23.9983 34.0902 24.08C34.0775 24.1246 34.0648 24.1692 34.0517 24.2152C34.0125 24.3709 34.0125 24.3709 34.0217 24.6087C34.1348 24.6298 34.2479 24.651 34.3645 24.6728C34.3645 24.7362 34.3645 24.7997 34.3645 24.865C34.0251 24.865 33.6857 24.865 33.3359 24.865C33.4045 24.6728 33.4045 24.6728 33.5328 24.564C33.7244 24.3704 33.7993 24.1588 33.8885 23.9138C33.9071 23.8647 33.9257 23.8157 33.9448 23.7652C34.004 23.6087 34.0622 23.4518 34.1202 23.2949C34.1969 23.0899 34.2741 22.885 34.3514 22.6801C34.3792 22.6062 34.3792 22.6062 34.4075 22.5307C34.5604 22.1273 34.7296 21.7326 34.9131 21.3403Z" fill="#090909"/>
<path d="M11.3906 21.4045C12.2958 21.4045 13.2009 21.4045 14.1335 21.4045C14.1335 21.7429 14.1335 22.0813 14.1335 22.4299C14.0882 22.4299 14.043 22.4299 13.9963 22.4299C13.9726 22.3708 13.9726 22.3708 13.9484 22.3105C13.8493 22.0811 13.7679 21.8947 13.5763 21.721C13.3051 21.6278 13.3051 21.6278 12.6935 21.6609C12.6709 22.105 12.6482 22.5491 12.6249 23.0067C13.0882 22.8733 13.0882 22.8733 13.1968 22.6695C13.2103 22.6182 13.2238 22.5669 13.2378 22.514C13.2525 22.4622 13.2673 22.4104 13.2825 22.3571C13.2918 22.3177 13.3011 22.2783 13.3106 22.2377C13.3559 22.2377 13.4011 22.2377 13.4478 22.2377C13.4478 22.8087 13.4478 23.3797 13.4478 23.968C13.4025 23.968 13.3573 23.968 13.3106 23.968C13.2974 23.9278 13.2841 23.8877 13.2704 23.8463C13.2526 23.7939 13.2347 23.7415 13.2163 23.6876C13.1988 23.6355 13.1813 23.5835 13.1633 23.5299C13.1119 23.3806 13.1119 23.3806 12.9678 23.263C12.8546 23.2419 12.7415 23.2207 12.6249 23.1989C12.6475 23.6642 12.6702 24.1295 12.6935 24.6088C12.8519 24.6511 13.0103 24.6934 13.1735 24.737C13.1735 24.7793 13.1735 24.8216 13.1735 24.8652C12.5851 24.8652 11.9968 24.8652 11.3906 24.8652C11.3906 24.8017 11.3906 24.7383 11.3906 24.6729C11.5038 24.6306 11.6169 24.5883 11.7335 24.5447C11.7335 23.5719 11.7335 22.5991 11.7335 21.5968C11.6203 21.5968 11.5072 21.5968 11.3906 21.5968C11.3906 21.5334 11.3906 21.4699 11.3906 21.4045Z" fill="#171717"/>
<path d="M9.60839 21.3403C9.65365 21.3403 9.69891 21.3403 9.74554 21.3403C9.7755 21.4147 9.7755 21.4147 9.80607 21.4906C10.02 22.0211 10.2352 22.5511 10.4516 23.0807C10.4962 23.1899 10.5406 23.2992 10.585 23.4085C10.6572 23.5859 10.7305 23.7629 10.8041 23.9398C10.825 23.9915 10.8459 24.0432 10.8675 24.0964C10.9812 24.3664 11.0875 24.5393 11.3227 24.7369C11.3227 24.7792 11.3227 24.8215 11.3227 24.865C10.8022 24.865 10.2818 24.865 9.74554 24.865C9.74554 24.8016 9.74554 24.7381 9.74554 24.6728C9.91525 24.6411 9.91525 24.6411 10.0884 24.6087C10.0504 24.3498 10.0061 24.0961 9.95125 23.8397C9.40816 23.8714 9.40816 23.8714 8.85411 23.9037C8.72409 24.2608 8.72409 24.2608 8.71696 24.6087C8.83011 24.651 8.94325 24.6933 9.05982 24.7369C9.05982 24.7792 9.05982 24.8215 9.05982 24.865C8.72039 24.865 8.38096 24.865 8.03125 24.865C8.03125 24.8016 8.03125 24.7381 8.03125 24.6728C8.13308 24.6411 8.13308 24.6411 8.23696 24.6087C8.32291 24.4711 8.32291 24.4711 8.39259 24.2945C8.42208 24.2248 8.45157 24.1551 8.48195 24.0833C8.69597 23.5552 8.8971 23.0227 9.09888 22.4905C9.15732 22.3366 9.2161 22.1828 9.27491 22.029C9.30148 21.9584 9.30148 21.9584 9.32859 21.8864C9.4056 21.6853 9.48089 21.5191 9.60839 21.3403Z" fill="#0C0C0C"/>
<path d="M24.0781 21.4045C24.6212 21.4045 25.1643 21.4045 25.7238 21.4045C25.7238 21.4468 25.7238 21.4891 25.7238 21.5327C25.6107 21.5539 25.4976 21.575 25.381 21.5968C25.381 22.5696 25.381 23.5424 25.381 24.5447C25.4941 24.587 25.6073 24.6293 25.7238 24.6729C25.7238 24.7363 25.7238 24.7998 25.7238 24.8652C25.1808 24.8652 24.6377 24.8652 24.0781 24.8652C24.0781 24.8017 24.0781 24.7383 24.0781 24.6729C24.1913 24.6306 24.3044 24.5883 24.421 24.5447C24.421 23.6142 24.421 22.6837 24.421 21.725C24.2513 21.6615 24.2513 21.6615 24.0781 21.5968C24.0781 21.5334 24.0781 21.4699 24.0781 21.4045Z" fill="#101010"/>
<path d="M14.2717 21.4688C14.7695 21.4688 15.2674 21.4688 15.7803 21.4688C15.6898 21.5322 15.5992 21.5956 15.506 21.661C15.462 21.8213 15.462 21.8213 15.4642 22.0022C15.462 22.0681 15.4598 22.134 15.4575 22.2019C15.456 22.3049 15.456 22.3049 15.4546 22.41C15.4515 22.5142 15.4515 22.5142 15.4484 22.6204C15.4435 22.7919 15.4399 22.9634 15.4374 23.135C15.4827 23.1561 15.5279 23.1773 15.5746 23.1991C15.5293 23.1991 15.484 23.1991 15.4374 23.1991C15.46 23.6432 15.4827 24.0873 15.506 24.5449C15.6191 24.5871 15.7323 24.6294 15.8488 24.673C15.8488 24.7365 15.8488 24.7999 15.8488 24.8653C15.3058 24.8653 14.7627 24.8653 14.2031 24.8653C14.2258 24.8018 14.2484 24.7384 14.2717 24.673C14.3624 24.6492 14.4539 24.6278 14.546 24.6089C14.624 24.4632 14.6232 24.383 14.6234 24.2212C14.6238 24.141 14.6238 24.141 14.6241 24.0592C14.6239 24.0013 14.6238 23.9435 14.6237 23.884C14.6238 23.7951 14.6238 23.7951 14.6239 23.7044C14.6239 23.579 14.6238 23.4536 14.6235 23.3282C14.6231 23.1358 14.6235 22.9434 14.6239 22.751C14.6239 22.6293 14.6238 22.5076 14.6237 22.386C14.6238 22.3282 14.6239 22.2703 14.6241 22.2108C14.6239 22.1573 14.6236 22.1039 14.6234 22.0488C14.6234 22.0016 14.6233 21.9545 14.6233 21.9059C14.6221 21.7828 14.6221 21.7828 14.546 21.661C14.4072 21.6192 14.4072 21.6192 14.2717 21.5969C14.2717 21.5546 14.2717 21.5123 14.2717 21.4688Z" fill="#070707"/>
<path d="M31.8958 21.4688C32.288 21.4395 32.4823 21.492 32.7872 21.7252C32.9804 21.8937 32.9926 21.9789 33.0272 22.2298C33.0187 22.4327 32.9749 22.553 32.8429 22.7145C32.6502 22.8786 32.5628 22.9291 32.3072 22.9428C32.3072 22.9851 32.3072 23.0274 32.3072 23.071C32.368 23.0749 32.4289 23.0789 32.4915 23.083C32.7718 23.1472 32.8766 23.253 33.0615 23.4555C33.1905 23.6965 33.1749 23.9627 33.1301 24.2245C32.9685 24.4945 32.754 24.6879 32.4444 24.8013C32.2826 24.8138 32.2826 24.8138 32.1187 24.8093C32.0365 24.8075 32.0365 24.8075 31.9526 24.8058C31.9112 24.8043 31.8699 24.8028 31.8272 24.8013C31.8569 24.7785 31.8866 24.7558 31.9172 24.7324C32.1969 24.4825 32.273 24.2912 32.2858 23.9281C32.2714 23.6558 32.255 23.5429 32.0929 23.3113C31.8824 23.1915 31.729 23.151 31.4844 23.135C31.5226 23.1218 31.5607 23.1086 31.6001 23.095C31.826 22.9694 31.9879 22.8436 32.1015 22.6224C32.1412 22.3622 32.1496 22.1127 32.1015 21.8533C32.0005 21.7466 32.0005 21.7466 31.8958 21.6611C31.8958 21.5976 31.8958 21.5342 31.8958 21.4688Z" fill="#090909"/>
<path d="M6.34357 18.0004C6.42229 18.0003 6.42229 18.0003 6.5026 18.0002C6.67938 18.0001 6.85615 18.0005 7.03294 18.0008C7.15929 18.0008 7.28564 18.0008 7.41199 18.0008C7.75582 18.0008 8.09965 18.0012 8.44348 18.0016C8.8025 18.002 9.16152 18.002 9.52055 18.0021C10.2008 18.0023 10.881 18.0028 11.5612 18.0035C12.3355 18.0042 13.1097 18.0046 13.884 18.0049C15.477 18.0055 17.0701 18.0067 18.6631 18.0081C18.4223 18.224 18.2011 18.2275 17.8834 18.2243C17.8069 18.2247 17.8069 18.2247 17.7287 18.2251C17.5576 18.2257 17.3865 18.225 17.2153 18.2242C17.0927 18.2244 16.97 18.2246 16.8474 18.2249C16.5141 18.2255 16.1809 18.2249 15.8477 18.2241C15.4993 18.2233 15.1509 18.2236 14.8025 18.2237C14.2175 18.2238 13.6325 18.2231 13.0474 18.2219C12.3705 18.2205 11.6936 18.2203 11.0167 18.2207C10.3661 18.2211 9.71552 18.2207 9.06491 18.22C8.78775 18.2197 8.5106 18.2196 8.23345 18.2198C7.90729 18.2199 7.58114 18.2194 7.25498 18.2184C7.13509 18.2181 7.0152 18.218 6.89532 18.2182C6.73204 18.2184 6.56879 18.2178 6.40552 18.2171C6.35775 18.2173 6.30998 18.2175 6.26075 18.2178C6.01308 18.2157 5.91566 18.2046 5.70312 18.0722C5.90837 17.9763 6.11853 17.9995 6.34357 18.0004Z" fill="#60832E"/>
<path d="M31.4843 23.135C31.8717 23.12 31.8717 23.12 32.0886 23.2551C32.3274 23.4719 32.3233 23.6186 32.3329 23.924C32.3302 24.2081 32.3283 24.3219 32.1615 24.5649C31.9355 24.6889 31.8107 24.7059 31.5529 24.673C31.4843 24.609 31.4843 24.609 31.4766 24.4664C31.4769 24.405 31.4773 24.3435 31.4777 24.2803C31.4779 24.214 31.4781 24.1477 31.4783 24.0794C31.4789 24.0096 31.4795 23.9398 31.4801 23.868C31.4804 23.798 31.4807 23.7279 31.481 23.6558C31.4818 23.4822 31.4829 23.3086 31.4843 23.135Z" fill="#F8F8F8"/>
<path d="M15.6946 21.5769C15.9758 21.6022 16.0667 21.6626 16.2603 21.8533C16.301 22.0818 16.301 22.0818 16.2946 22.3379C16.2948 22.381 16.295 22.4241 16.2952 22.4685C16.2886 22.7789 16.2886 22.7789 16.1756 22.9217C16.024 23.0283 15.9211 23.0381 15.7332 23.0509C15.6778 23.0551 15.6223 23.0593 15.5652 23.0636C15.502 23.0672 15.502 23.0672 15.4375 23.0709C15.4355 22.8373 15.4343 22.6036 15.4332 22.37C15.4326 22.3033 15.432 22.2365 15.4314 22.1678C15.4311 22.0727 15.4311 22.0727 15.4308 21.9757C15.4304 21.917 15.4301 21.8582 15.4297 21.7977C15.4415 21.5903 15.471 21.6007 15.6946 21.5769Z" fill="#F8F8F8"/>
<path d="M31.5529 21.5969C31.7886 21.6129 31.7886 21.6129 32.0329 21.661C32.2466 21.9605 32.2105 22.2717 32.1701 22.6223C32.0586 22.8306 32.0586 22.8306 31.8958 22.9427C31.6799 22.9497 31.6799 22.9497 31.4843 22.9427C31.4824 22.7304 31.4811 22.5182 31.4801 22.3059C31.4795 22.2453 31.4789 22.1847 31.4783 22.1222C31.4781 22.0646 31.4779 22.007 31.4777 21.9476C31.4773 21.8943 31.4769 21.8409 31.4766 21.7859C31.4843 21.661 31.4843 21.661 31.5529 21.5969Z" fill="#FAFAFA"/>
<path d="M38.9609 21.4045C39.3004 21.4045 39.6398 21.4045 39.9895 21.4045C39.9209 21.5968 39.9209 21.5968 39.7152 21.725C39.6826 21.8669 39.6826 21.8669 39.6856 22.0337C39.6842 22.0978 39.6829 22.1619 39.6815 22.228C39.6808 22.3322 39.6808 22.3322 39.6801 22.4384C39.6789 22.5094 39.6777 22.5803 39.6764 22.6534C39.6727 22.8806 39.6704 23.1079 39.6681 23.3351C39.6658 23.4889 39.6634 23.6427 39.661 23.7965C39.6551 24.1741 39.6505 24.5516 39.6467 24.9292C39.624 24.9292 39.6014 24.9292 39.5781 24.9292C39.5764 24.8869 39.5746 24.8445 39.5729 24.8008C39.5649 24.61 39.5565 24.4191 39.5481 24.2283C39.5454 24.1616 39.5427 24.0949 39.5399 24.0262C39.537 23.9628 39.5342 23.8994 39.5312 23.834C39.5287 23.7753 39.5262 23.7166 39.5236 23.6561C39.5253 23.5205 39.5253 23.5205 39.4409 23.4553C39.4351 23.3348 39.4335 23.2141 39.4337 23.0935C39.4327 23.0197 39.4317 22.9459 39.4306 22.8699C39.4289 22.7135 39.4286 22.5571 39.4296 22.4007C39.4423 22.0163 39.4423 22.0163 39.2771 21.6836C39.1526 21.6061 39.1526 21.6061 38.9609 21.5327C38.9609 21.4904 38.9609 21.4481 38.9609 21.4045Z" fill="#181818"/>
<path d="M20.4442 23.7756C20.4895 23.7756 20.5348 23.7756 20.5814 23.7756C20.5603 23.9452 20.5388 24.1148 20.5171 24.2843C20.5111 24.3327 20.5052 24.381 20.499 24.4309C20.452 24.7937 20.452 24.7937 20.3757 24.8651C20.1729 24.8708 19.9717 24.8725 19.769 24.8713C19.6778 24.8712 19.6778 24.8712 19.5848 24.8711C19.3898 24.8707 19.1949 24.8699 19 24.8691C18.8681 24.8688 18.7363 24.8685 18.6045 24.8682C18.2806 24.8675 17.9567 24.8664 17.6328 24.8651C17.6328 24.8439 17.6328 24.8228 17.6328 24.801C17.6812 24.8007 17.7295 24.8005 17.7793 24.8002C18.002 24.7981 18.2245 24.7935 18.4471 24.789C18.5231 24.7886 18.5991 24.7882 18.6775 24.7879C19.1953 24.775 19.6051 24.7019 20.0328 24.4165C20.189 24.2543 20.189 24.2543 20.2728 24.076C20.3273 23.9746 20.3837 23.874 20.4442 23.7756Z" fill="#222222"/>
<path d="M17.6328 21.4045C18.538 21.4045 19.4431 21.4045 20.3757 21.4045C20.3757 21.7429 20.3757 22.0813 20.3757 22.4299C20.3304 22.4299 20.2852 22.4299 20.2385 22.4299C20.2148 22.3708 20.2148 22.3708 20.1906 22.3105C20.0519 21.9871 20.0519 21.9871 19.8142 21.725C19.5477 21.6364 19.2855 21.6134 19.0042 21.5968C19.0042 21.5756 19.0042 21.5545 19.0042 21.5327C18.5517 21.5116 18.0991 21.4904 17.6328 21.4686C17.6328 21.4475 17.6328 21.4263 17.6328 21.4045Z" fill="#282828"/>
<path d="M9.33721 22.4941C9.50812 22.6877 9.60324 22.8709 9.69292 23.107C9.71652 23.1678 9.74013 23.2287 9.76444 23.2915C9.81721 23.4554 9.81721 23.4554 9.81721 23.6477C9.52304 23.6477 9.22887 23.6477 8.92578 23.6477C9.03705 23.2466 9.14975 22.8696 9.33721 22.4941Z" fill="#ECECEC"/>
<path d="M34.6397 22.4941C34.685 22.4941 34.7302 22.4941 34.7769 22.4941C34.9126 22.8748 35.0484 23.2555 35.1883 23.6477C34.8941 23.6477 34.6 23.6477 34.2969 23.6477C34.336 23.2363 34.4802 22.8776 34.6397 22.4941Z" fill="#ECECEC"/>
<path d="M21.953 23.5195C21.9757 23.583 21.9983 23.6464 22.0216 23.7118C21.9271 23.8635 21.8157 23.9978 21.7026 24.1379C21.5969 24.3103 21.5921 24.4135 21.6102 24.609C21.7007 24.6301 21.7912 24.6513 21.8845 24.6731C21.8845 24.7365 21.8845 24.8 21.8845 24.8653C21.4998 24.8653 21.1151 24.8653 20.7188 24.8653C20.7188 24.8019 20.7188 24.7384 20.7188 24.6731C20.78 24.65 20.8413 24.627 20.9044 24.6032C21.1664 24.4612 21.2953 24.2945 21.4516 24.0603C21.7238 23.6624 21.7238 23.6624 21.953 23.5195Z" fill="#1A1A1A"/>
<path d="M19.5551 22.2378C19.6003 22.2378 19.6456 22.2378 19.6922 22.2378C19.6922 22.8088 19.6922 23.3798 19.6922 23.9681C19.647 23.9681 19.6017 23.9681 19.5551 23.9681C19.5418 23.928 19.5285 23.8878 19.5149 23.8464C19.497 23.7941 19.4792 23.7417 19.4608 23.6877C19.4433 23.6357 19.4258 23.5836 19.4077 23.53C19.3563 23.3808 19.3563 23.3808 19.2122 23.2632C19.0759 23.2377 18.9386 23.2159 18.8008 23.1991C18.8008 23.1356 18.8008 23.0722 18.8008 23.0068C18.8871 22.987 18.9733 22.9672 19.0622 22.9467C19.2576 22.8808 19.331 22.846 19.4316 22.6734C19.4814 22.5288 19.523 22.3866 19.5551 22.2378Z" fill="#090909"/>
<path d="M13.3107 22.2378C13.356 22.2378 13.4012 22.2378 13.4479 22.2378C13.4479 22.8088 13.4479 23.3798 13.4479 23.9681C13.4026 23.9681 13.3573 23.9681 13.3107 23.9681C13.2975 23.928 13.2842 23.8878 13.2705 23.8464C13.2527 23.7941 13.2348 23.7417 13.2164 23.6877C13.1989 23.6357 13.1814 23.5836 13.1634 23.53C13.112 23.3808 13.112 23.3808 12.9679 23.2632C12.7916 23.2217 12.7916 23.2217 12.625 23.1991C12.8993 22.9427 12.8993 22.9427 13.045 22.8266C13.2122 22.6443 13.2536 22.4691 13.3107 22.2378Z" fill="#090909"/>
<path d="M34.0217 24.0322C34.0217 24.2226 34.0217 24.4129 34.0217 24.609C34.1348 24.6301 34.2479 24.6513 34.3645 24.6731C34.3645 24.7365 34.3645 24.8 34.3645 24.8653C34.0251 24.8653 33.6857 24.8653 33.3359 24.8653C33.4045 24.6731 33.4045 24.6731 33.5374 24.5529C33.6896 24.4063 33.7396 24.2849 33.8159 24.0963C33.9531 24.0322 33.9531 24.0322 34.0217 24.0322Z" fill="#202020"/>
<path d="M13.5649 21.4607C13.8131 21.4646 13.8131 21.4646 14.0663 21.4687C14.0663 21.7859 14.0663 22.1031 14.0663 22.4299C13.9292 22.2377 13.9292 22.2377 13.8392 22.0454C13.7059 21.824 13.6293 21.7591 13.3806 21.6609C13.1969 21.6284 13.0189 21.6116 12.832 21.5968C13.0846 21.4394 13.2741 21.4541 13.5649 21.4607Z" fill="#040404"/>
<path d="M8.57982 24.1606C8.71696 24.2888 8.71696 24.2888 8.72554 24.457C8.72271 24.5073 8.71988 24.5575 8.71696 24.6092C8.88668 24.6727 8.88668 24.6727 9.05982 24.7374C9.05982 24.7797 9.05982 24.822 9.05982 24.8656C8.72039 24.8656 8.38096 24.8656 8.03125 24.8656C8.03125 24.8021 8.03125 24.7387 8.03125 24.6733C8.09914 24.6522 8.16702 24.631 8.23696 24.6092C8.30779 24.4821 8.37642 24.354 8.44268 24.2247C8.48794 24.2036 8.53319 24.1824 8.57982 24.1606Z" fill="#222222"/>
<path d="M28.7421 21.853C28.7874 21.853 28.8327 21.853 28.8793 21.853C28.8419 22.2279 28.7601 22.5508 28.6179 22.9024C28.6008 22.9479 28.5838 22.9935 28.5663 23.0404C28.4354 23.3684 28.4354 23.3684 28.2485 23.4857C28.2077 23.4968 28.167 23.5078 28.125 23.5192C28.2918 22.9503 28.5164 22.4033 28.7421 21.853Z" fill="#181818"/>
<path d="M28.9496 21.9172C28.9723 21.9172 28.9949 21.9172 29.0182 21.9172C29.0182 22.7843 29.0182 23.6514 29.0182 24.5447C28.9956 24.5447 28.973 24.5447 28.9496 24.5447C28.9479 24.4797 28.9462 24.4147 28.9444 24.3478C28.938 24.1066 28.9311 23.8655 28.9241 23.6244C28.9211 23.52 28.9183 23.4156 28.9155 23.3113C28.9116 23.1613 28.9072 23.0112 28.9028 22.8612C28.9016 22.8146 28.9005 22.7679 28.8993 22.7198C28.8931 22.5221 28.8799 22.3625 28.8125 22.1736C28.8768 22.0334 28.8768 22.0334 28.9496 21.9172Z" fill="#CDCDCD"/>
<path d="M9.19875 22.5581C9.28529 22.8007 9.23512 22.9021 9.15161 23.1429C9.12871 23.2118 9.10582 23.2807 9.08223 23.3517C8.99304 23.5194 8.99304 23.5194 8.84598 23.575C8.783 23.5792 8.783 23.5792 8.71875 23.5835C8.9529 22.8322 8.9529 22.8322 9.06161 22.6222C9.10686 22.601 9.15212 22.5799 9.19875 22.5581Z" fill="#1A1A1A"/>
<path d="M34.6363 22.4299C34.6519 22.6836 34.6054 22.8579 34.4991 23.0908C34.4737 23.1474 34.4482 23.204 34.422 23.2623C34.4022 23.3048 34.3824 23.3474 34.362 23.3912C34.2941 23.3912 34.2262 23.3912 34.1562 23.3912C34.299 22.74 34.299 22.74 34.4305 22.494C34.5677 22.4299 34.5677 22.4299 34.6363 22.4299Z" fill="#1B1B1B"/>
<path d="M13.3108 22.2378C13.356 22.2378 13.4013 22.2378 13.4479 22.2378C13.4479 22.8088 13.4479 23.3798 13.4479 23.9681C13.4026 23.9681 13.3574 23.9681 13.3108 23.9681C13.3334 23.5028 13.356 23.0376 13.3793 22.5582C13.3341 22.5582 13.2888 22.5582 13.2422 22.5582C13.2648 22.4525 13.2874 22.3467 13.3108 22.2378Z" fill="#151515"/>
<path d="M35.1194 24.6729C35.1872 24.6729 35.2551 24.6729 35.3251 24.6729C35.3251 24.7151 35.3251 24.7574 35.3251 24.801C35.755 24.801 36.185 24.801 36.6279 24.801C36.6279 24.8222 36.6279 24.8433 36.6279 24.8651C36.1075 24.8651 35.587 24.8651 35.0508 24.8651C35.0734 24.8017 35.096 24.7382 35.1194 24.6729Z" fill="#555555"/>
<path d="M23.5295 25.9548C23.5295 26.1471 23.5295 26.1471 23.3945 26.278C23.3372 26.3234 23.2799 26.3687 23.2209 26.4154C23.1636 26.4613 23.1063 26.5071 23.0473 26.5544C23.0028 26.5892 22.9582 26.6239 22.9123 26.6598C22.8897 26.5963 22.8671 26.5329 22.8438 26.4675C23.07 26.2983 23.2963 26.1291 23.5295 25.9548Z" fill="#F9B014"/>
<path d="M28.3299 22.8784C28.3978 22.8784 28.4657 22.8784 28.5356 22.8784C28.506 23.1829 28.4446 23.3219 28.1927 23.5193C28.1242 23.3911 28.1242 23.3911 28.1625 23.2664C28.1824 23.2203 28.2023 23.1742 28.2227 23.1267C28.2425 23.0803 28.2622 23.0339 28.2825 22.9861C28.2981 22.9505 28.3138 22.915 28.3299 22.8784Z" fill="#242424"/>
<path d="M19.485 29.6074C19.5529 29.6286 19.6207 29.6497 19.6907 29.6715C19.6582 29.6953 19.6256 29.7191 19.5921 29.7436C19.4492 29.9039 19.4407 30.0442 19.4164 30.2483C19.4617 30.2483 19.5069 30.2483 19.5535 30.2483C19.5762 30.3117 19.5988 30.3752 19.6221 30.4405C19.5542 30.4405 19.4863 30.4405 19.4164 30.4405C19.3357 30.2897 19.3364 30.1918 19.335 30.024C19.334 29.9731 19.333 29.9222 19.332 29.8698C19.3478 29.7356 19.3478 29.7356 19.485 29.6074Z" fill="#F9AB09"/>
<path d="M38.2057 38.8999C38.251 38.9422 38.2962 38.9845 38.3429 39.0281C38.2976 39.0281 38.2523 39.0281 38.2057 39.0281C38.2057 38.9858 38.2057 38.9435 38.2057 38.8999ZM38 39.0281C38.0679 39.0281 38.1358 39.0281 38.2057 39.0281C38.2368 39.069 38.2679 39.11 38.3 39.1522C38.4023 39.3003 38.4023 39.3003 38.5957 39.3325C38.648 39.3378 38.7004 39.3431 38.7543 39.3485C38.7543 39.3696 38.7543 39.3908 38.7543 39.4126C38.3179 39.444 38.3179 39.444 38.1071 39.2924C38 39.1562 38 39.1562 38 39.0281Z" fill="#5E7F26"/>
<path d="M19.5509 22.2378C19.5961 22.2378 19.6414 22.2378 19.688 22.2378C19.688 22.555 19.688 22.8722 19.688 23.1991C19.6654 23.1991 19.6428 23.1991 19.6194 23.1991C19.6095 23.1198 19.5996 23.0405 19.5894 22.9588C19.5705 22.8134 19.549 22.6798 19.508 22.5382C19.4823 22.43 19.4823 22.43 19.5509 22.2378Z" fill="#171717"/>
<path d="M22.914 15.6367C22.914 15.679 22.914 15.7213 22.914 15.7649C22.8603 15.794 22.8065 15.823 22.7512 15.853C22.5627 15.962 22.5109 16.0241 22.434 16.2135C22.3888 16.2135 22.3435 16.2135 22.2969 16.2135C22.3879 15.9349 22.5653 15.6367 22.914 15.6367Z" fill="#F8AC0B"/>
<path d="M9.47176 9.86914C9.49439 9.95373 9.51702 10.0383 9.54033 10.1255C9.42719 10.2101 9.31405 10.2947 9.19748 10.3818C9.17485 10.3395 9.15222 10.2972 9.12891 10.2537C9.24205 10.1268 9.35519 9.99987 9.47176 9.86914Z" fill="#436C09"/>
<path d="M22.5694 34.8625C22.4755 35.0651 22.433 35.1184 22.2266 35.2471C22.2266 35.1625 22.2266 35.0779 22.2266 34.9907C22.4323 34.8625 22.4323 34.8625 22.5694 34.8625Z" fill="#F9B319"/>
</g>
<defs>
<clipPath id="clip0_327_9235">
<rect width="48" height="48" fill="white" transform="translate(0.285156)"/>
</clipPath>
</defs>
</svg>
