<svg width="60" height="60" viewBox="0 0 60 60" fill="none" xmlns="http://www.w3.org/2000/svg">
<rect width="60" height="60" rx="30" fill="#1E772C"/>
<path fill-rule="evenodd" clip-rule="evenodd" d="M31.8373 38.1623C31.6618 37.9866 31.5632 37.7483 31.5632 37.4998C31.5632 37.2514 31.6618 37.0131 31.8373 36.8373L37.7373 30.9373L19.9998 30.9373C19.7512 30.9373 19.5128 30.8386 19.3369 30.6628C19.1611 30.4869 19.0623 30.2485 19.0623 29.9998C19.0623 29.7512 19.1611 29.5128 19.3369 29.3369C19.5128 29.1611 19.7512 29.0623 19.9998 29.0623H37.7373L31.8373 23.1623C31.7452 23.0765 31.6714 22.973 31.6201 22.858C31.5689 22.743 31.5413 22.6189 31.5391 22.493C31.5369 22.3671 31.56 22.2421 31.6072 22.1254C31.6543 22.0086 31.7245 21.9026 31.8136 21.8135C31.9026 21.7245 32.0086 21.6543 32.1254 21.6072C32.2421 21.56 32.3671 21.5369 32.493 21.5391C32.6189 21.5413 32.743 21.5689 32.858 21.6201C32.973 21.6714 33.0765 21.7452 33.1623 21.8373L40.6623 29.3373C40.8379 29.5131 40.9365 29.7514 40.9365 29.9998C40.9365 30.2483 40.8379 30.4866 40.6623 30.6623L33.1623 38.1623C32.9866 38.3379 32.7483 38.4365 32.4998 38.4365C32.2514 38.4365 32.0131 38.3379 31.8373 38.1623Z" fill="white"/>
</svg>
