<svg width="60" height="60" viewBox="0 0 60 60" fill="none" xmlns="http://www.w3.org/2000/svg">
<rect width="60" height="60" rx="30" fill="#1E772C"/>
<path fill-rule="evenodd" clip-rule="evenodd" d="M31.8383 38.1626C31.6628 37.9868 31.5641 37.7485 31.5641 37.5001C31.5641 37.2517 31.6628 37.0134 31.8383 36.8376L37.7383 30.9376L20.0008 30.9376C19.7522 30.9376 19.5137 30.8388 19.3379 30.663C19.1621 30.4872 19.0633 30.2487 19.0633 30.0001C19.0633 29.7515 19.1621 29.513 19.3379 29.3372C19.5137 29.1614 19.7522 29.0626 20.0008 29.0626H37.7383L31.8383 23.1626C31.7462 23.0768 31.6723 22.9733 31.6211 22.8583C31.5699 22.7433 31.5423 22.6191 31.5401 22.4932C31.5379 22.3674 31.561 22.2423 31.6082 22.1256C31.6553 22.0089 31.7255 21.9028 31.8145 21.8138C31.9036 21.7248 32.0096 21.6546 32.1263 21.6074C32.2431 21.5603 32.3681 21.5371 32.494 21.5394C32.6199 21.5416 32.744 21.5691 32.859 21.6204C32.974 21.6716 33.0775 21.7455 33.1633 21.8376L40.6633 29.3376C40.8389 29.5134 40.9375 29.7517 40.9375 30.0001C40.9375 30.2485 40.8389 30.4868 40.6633 30.6626L33.1633 38.1626C32.9875 38.3382 32.7493 38.4368 32.5008 38.4368C32.2524 38.4368 32.0141 38.3382 31.8383 38.1626Z" fill="white"/>
</svg>
