<svg width="60" height="60" viewBox="0 0 60 60" fill="none" xmlns="http://www.w3.org/2000/svg">
<rect width="60" height="60" rx="30" fill="#D9D9D9"/>
<path fill-rule="evenodd" clip-rule="evenodd" d="M28.1617 21.8374C28.3372 22.0132 28.4359 22.2515 28.4359 22.4999C28.4359 22.7483 28.3372 22.9866 28.1617 23.1624L22.2617 29.0624H39.9992C40.2478 29.0624 40.4863 29.1612 40.6621 29.337C40.8379 29.5128 40.9367 29.7513 40.9367 29.9999C40.9367 30.2485 40.8379 30.487 40.6621 30.6628C40.4863 30.8386 40.2478 30.9374 39.9992 30.9374H22.2617L28.1617 36.8374C28.2538 36.9232 28.3277 37.0267 28.3789 37.1417C28.4301 37.2567 28.4577 37.3809 28.4599 37.5068C28.4621 37.6326 28.439 37.7577 28.3918 37.8744C28.3447 37.9911 28.2745 38.0972 28.1855 38.1862C28.0964 38.2752 27.9904 38.3454 27.8737 38.3926C27.7569 38.4397 27.6319 38.4629 27.506 38.4606C27.3801 38.4584 27.256 38.4309 27.141 38.3796C27.026 38.3284 26.9225 38.2545 26.8367 38.1624L19.3367 30.6624C19.1611 30.4866 19.0625 30.2483 19.0625 29.9999C19.0625 29.7515 19.1611 29.5132 19.3367 29.3374L26.8367 21.8374C27.0125 21.6618 27.2507 21.5632 27.4992 21.5632C27.7476 21.5632 27.9859 21.6618 28.1617 21.8374Z" fill="black"/>
</svg>
